<svg width="201" height="164" viewBox="0 0 201 164" fill="none" xmlns="http://www.w3.org/2000/svg">
<g filter="url(#filter0_d_119_1709)">
<g clip-path="url(#clip0_119_1709)">
<path d="M113.182 77.8684L131.997 98.9594L157.3 114.815L161.701 78.0015L157.3 42.0187L131.513 55.9471L113.182 77.8684Z" fill="#00832D"/>
<path d="M4 111.388V142.758C4 149.921 9.92872 155.737 17.2341 155.737H49.2223L55.8461 132.034L49.2223 111.388L27.2761 104.893L4.00075 111.388H4Z" fill="#0066DA"/>
<path d="M49.2223 0L4 44.3484L27.2776 50.8286L49.2223 44.3484L55.7255 23.9833L49.2223 0Z" fill="#E94235"/>
<path d="M4.00073 111.402H49.2223V44.3476H4.00073V111.402Z" fill="#2684FC"/>
<path d="M186.188 18.7777L157.299 42.0194V114.815L186.307 138.146C190.65 141.482 197.002 138.442 197.002 133.029V23.7918C197.002 18.3185 190.498 15.2932 186.188 18.7784" fill="#00AC47"/>
<path d="M113.182 77.8684V111.388H49.2223V155.737H144.067C151.372 155.737 157.3 149.921 157.3 142.758V114.815L113.182 77.8684Z" fill="#00AC47"/>
<path d="M144.067 0H49.2223V44.3484H113.182V77.8684L157.301 42.018V12.9791C157.301 5.81488 151.372 0.000739336 144.067 0.000739336" fill="#FFBA00"/>
</g>
</g>
<defs>
<filter id="filter0_d_119_1709" x="0" y="0" width="201" height="164" filterUnits="userSpaceOnUse" color-interpolation-filters="sRGB">
<feFlood flood-opacity="0" result="BackgroundImageFix"/>
<feColorMatrix in="SourceAlpha" type="matrix" values="0 0 0 0 0 0 0 0 0 0 0 0 0 0 0 0 0 0 127 0" result="hardAlpha"/>
<feOffset dy="4"/>
<feGaussianBlur stdDeviation="2"/>
<feComposite in2="hardAlpha" operator="out"/>
<feColorMatrix type="matrix" values="0 0 0 0 0 0 0 0 0 0 0 0 0 0 0 0 0 0 0.25 0"/>
<feBlend mode="normal" in2="BackgroundImageFix" result="effect1_dropShadow_119_1709"/>
<feBlend mode="normal" in="SourceGraphic" in2="effect1_dropShadow_119_1709" result="shape"/>
</filter>
<clipPath id="clip0_119_1709">
<rect width="193" height="156" fill="white" transform="translate(4)"/>
</clipPath>
</defs>
</svg>
