<svg xmlns="http://www.w3.org/2000/svg" width="36" height="36" fill="none" viewBox="0 0 36 36">
  <path fill="#6635FC" d="M6.75 9a3.375 3.375 0 0 1 3.375-3.375h18A3.375 3.375 0 0 1 31.5 9v11.25a3.375 3.375 0 0 1-3.375 3.375h-9v-2.25h9a1.125 1.125 0 0 0 1.125-1.125V9a1.125 1.125 0 0 0-1.125-1.125h-18A1.125 1.125 0 0 0 9 9H7.875c-.388 0-.765.05-1.125.142V9Zm25.875 19.125h-13.5v-2.25h13.5a1.125 1.125 0 1 1 0 2.25Zm-22.5 0a1.125 1.125 0 1 0 0-2.25 1.125 1.125 0 0 0 0 2.25Zm-6.75-13.5A3.375 3.375 0 0 1 6.75 11.25h6.75a3.375 3.375 0 0 1 3.375 3.375v13.5A3.375 3.375 0 0 1 13.5 31.5H6.75a3.375 3.375 0 0 1-3.375-3.375v-13.5ZM6.75 13.5a1.125 1.125 0 0 0-1.125 1.125v13.5A1.125 1.125 0 0 0 6.75 29.25h6.75a1.125 1.125 0 0 0 1.125-1.125v-13.5A1.125 1.125 0 0 0 13.5 13.5H6.75Z"/>
</svg>
