<svg xmlns="http://www.w3.org/2000/svg" width="453" height="354" fill="none" viewBox="0 0 453 354">
  <path fill="#494949" d="M58.701 301.487a.463.463 0 0 1-.306-.113c-.61-.545-1.603-10.541-4.279-40.301-1.094-12.177-2.129-23.679-2.884-30.669-.053-.499-.27-.557-.341-.576-1.033-.279-4.175 1.936-5.93 3.875a.47.47 0 0 1-.609.058.378.378 0 0 1-.157-.261.356.356 0 0 1 .094-.283c1.16-1.283 4.94-4.644 6.85-4.13.386.103.866.403.955 1.243.755 6.996 1.79 18.501 2.885 30.681 1.626 18.085 3.468 38.573 4.073 39.864a.357.357 0 0 1 .034.402.408.408 0 0 1-.16.153.473.473 0 0 1-.225.057Z"/>
  <path fill="#0CBC8B" d="M50.122 243.231c7.178-5.143 9.557-13.149 5.314-17.88-4.243-4.732-13.502-4.399-20.68.744-7.178 5.144-9.557 13.149-5.314 17.881 4.243 4.732 13.502 4.398 20.68-.745Z"/>
  <path fill="#fff" d="M50.122 243.231c7.178-5.143 9.557-13.149 5.314-17.88-4.243-4.732-13.502-4.399-20.68.744-7.178 5.144-9.557 13.149-5.314 17.881 4.243 4.732 13.502 4.398 20.68-.745Z" opacity=".2"/>
  <path fill="#fff" d="M31.453 245.179a.232.232 0 0 1-.116-.031.193.193 0 0 1-.08-.081.174.174 0 0 1-.018-.106.185.185 0 0 1 .048-.099l20.457-22.051a.223.223 0 0 1 .146-.067.237.237 0 0 1 .156.044.19.19 0 0 1 .077.129.18.18 0 0 1-.046.141L31.62 245.109a.227.227 0 0 1-.167.07Z"/>
  <path fill="#494949" d="M63.163 296.76a.48.48 0 0 1-.198-.043.434.434 0 0 1-.155-.12.36.36 0 0 1-.075-.17.345.345 0 0 1 .02-.181l7.684-19.754a3.673 3.673 0 0 1 1.121-1.514 4.296 4.296 0 0 1 1.795-.849 4.579 4.579 0 0 1 2.031.024 4.256 4.256 0 0 1 1.77.889l4.063 3.47c.083.07.13.168.133.27a.365.365 0 0 1-.12.276.458.458 0 0 1-.302.12.463.463 0 0 1-.31-.107l-4.062-3.469a3.363 3.363 0 0 0-1.397-.702 3.628 3.628 0 0 0-1.603-.019 3.385 3.385 0 0 0-1.417.67 2.904 2.904 0 0 0-.885 1.195L63.572 296.5a.395.395 0 0 1-.158.188.473.473 0 0 1-.25.072Z"/>
  <path fill="#0CBC8B" d="M92.568 289.447c5.32-3.763 5.004-12.042-.706-18.49-5.71-6.448-14.65-8.623-19.97-4.859-5.32 3.763-5.004 12.042.706 18.49 5.71 6.448 14.65 8.623 19.97 4.859Z"/>
  <path fill="#494949" d="M55.21 300.227a.464.464 0 0 1-.268-.083.384.384 0 0 1-.152-.214l-12.895-48.196a1.791 1.791 0 0 0-.543-.868 2.123 2.123 0 0 0-.97-.488 2.287 2.287 0 0 0-1.112.035c-.36.103-.68.292-.928.548l-3.975 4.106a.454.454 0 0 1-.296.132.473.473 0 0 1-.315-.093.398.398 0 0 1-.103-.119.354.354 0 0 1 .06-.426l3.974-4.107a2.967 2.967 0 0 1 1.32-.778 3.252 3.252 0 0 1 1.581-.049 3.02 3.02 0 0 1 1.377.694c.38.34.646.768.77 1.235l12.896 48.196c.027.1.008.205-.052.293a.43.43 0 0 1-.369.182Z"/>
  <path fill="#0CBC8B" d="M50.452 265.773c1.568-8.103-2.581-15.509-9.266-16.543-6.685-1.033-13.376 4.698-14.943 12.801-1.568 8.103 2.58 15.51 9.266 16.543 6.685 1.034 13.375-4.698 14.943-12.801Z"/>
  <path fill="#494949" d="M58.702 301.487a.48.48 0 0 1-.214-.05.425.425 0 0 1-.128-.099.373.373 0 0 1-.076-.135.346.346 0 0 1-.013-.15l8.235-59.764c.09-.651.388-1.265.859-1.768a3.865 3.865 0 0 1 1.795-1.068c.7-.194 1.45-.203 2.156-.026.706.177 1.34.533 1.826 1.025l9.412 9.528a.392.392 0 0 1 .085.131.351.351 0 0 1-.02.296.408.408 0 0 1-.103.12.47.47 0 0 1-.61-.034l-9.412-9.529a3.01 3.01 0 0 0-1.411-.792 3.28 3.28 0 0 0-1.667.02 2.986 2.986 0 0 0-1.387.825 2.504 2.504 0 0 0-.664 1.367l-8.235 59.764a.379.379 0 0 1-.142.242.465.465 0 0 1-.286.097Z"/>
  <path fill="#0CBC8B" d="M92.208 254.276c3.284-5.307-.58-12.835-8.63-16.816-8.05-3.98-17.238-2.905-20.522 2.402-3.284 5.307.58 12.835 8.63 16.816 8.05 3.98 17.238 2.905 20.522-2.402Z"/>
  <path fill="#fff" d="M92.568 289.447c5.32-3.763 5.004-12.042-.706-18.49-5.71-6.448-14.65-8.623-19.97-4.859-5.32 3.763-5.004 12.042.706 18.49 5.71 6.448 14.65 8.623 19.97 4.859Z" opacity=".2"/>
  <path fill="#fff" d="M50.452 265.773c1.568-8.103-2.581-15.509-9.266-16.543-6.685-1.033-13.376 4.698-14.943 12.801-1.568 8.103 2.58 15.51 9.266 16.543 6.685 1.034 13.375-4.698 14.943-12.801Zm41.756-11.497c3.284-5.307-.58-12.835-8.63-16.816-8.05-3.98-17.238-2.905-20.522 2.402-3.284 5.307.58 12.835 8.63 16.816 8.05 3.98 17.238 2.905 20.522-2.402Z" opacity=".5"/>
  <path fill="#292A2E" d="M69.233 352.196H48.17l-3.491-60.245h28.046l-3.49 60.245Z"/>
  <path fill="#fff" d="M69.233 352.196H48.17l-3.491-60.245h28.046l-3.49 60.245Z" opacity=".3"/>
  <path fill="#fff" d="M92.57 289.64a.235.235 0 0 1-.17-.074l-20.678-23.349a.186.186 0 0 1-.045-.143.187.187 0 0 1 .08-.129.225.225 0 0 1 .16-.041.224.224 0 0 1 .08.024.203.203 0 0 1 .064.048l20.677 23.35a.186.186 0 0 1 .046.099.174.174 0 0 1-.02.105.2.2 0 0 1-.08.08.24.24 0 0 1-.115.03Zm-1.738-33.493a.228.228 0 0 1-.127-.039l-26.459-17.269a.202.202 0 0 1-.057-.056.18.18 0 0 1-.026-.146.188.188 0 0 1 .036-.069.23.23 0 0 1 .141-.077.239.239 0 0 1 .161.035l26.46 17.27a.2.2 0 0 1 .076.097.174.174 0 0 1-.001.119.196.196 0 0 1-.08.096.231.231 0 0 1-.126.036l.002.003Zm-56.396 22.175a.22.22 0 0 1-.187-.096.177.177 0 0 1-.022-.147l8.423-28.209a.192.192 0 0 1 .099-.124.212.212 0 0 1 .082-.026.23.23 0 0 1 .164.039.197.197 0 0 1 .056.059.177.177 0 0 1 .017.152l-8.423 28.209a.194.194 0 0 1-.078.103.232.232 0 0 1-.131.04Z"/>
  <path fill="#F4F4F4" d="M193.638 297.37h-73.166l-11.464 7.675V264.42c0-1.517.675-2.973 1.875-4.046 1.201-1.073 2.829-1.676 4.527-1.676h78.228c1.698 0 3.327.603 4.527 1.676 1.201 1.073 1.875 2.529 1.875 4.046v27.227a5.185 5.185 0 0 1-.487 2.19 5.731 5.731 0 0 1-1.387 1.857 6.502 6.502 0 0 1-2.078 1.24 7.054 7.054 0 0 1-2.45.436Z"/>
  <path fill="#fff" d="M191.95 267.303H117.1a.273.273 0 0 1-.196-.066.233.233 0 0 1-.061-.079.214.214 0 0 1 0-.187.244.244 0 0 1 .061-.079.296.296 0 0 1 .09-.051.316.316 0 0 1 .106-.015h74.85a.316.316 0 0 1 .106.015.296.296 0 0 1 .09.051.222.222 0 0 1 0 .345.276.276 0 0 1-.196.066Zm0 7.702H117.1a.293.293 0 0 1-.196-.066.233.233 0 0 1-.061-.079.214.214 0 0 1 0-.187.233.233 0 0 1 .061-.079.276.276 0 0 1 .196-.066h74.85a.293.293 0 0 1 .196.066.233.233 0 0 1 .061.079.215.215 0 0 1 0 .187.233.233 0 0 1-.061.079.276.276 0 0 1-.196.066Zm0 7.702H117.1a.283.283 0 0 1-.189-.07.228.228 0 0 1-.078-.169c0-.063.028-.124.078-.169a.287.287 0 0 1 .189-.069h74.85c.071 0 .139.025.189.069.05.045.078.106.078.169a.228.228 0 0 1-.078.169.283.283 0 0 1-.189.07Zm-16.024 7.701H117.1a.273.273 0 0 1-.196-.066.233.233 0 0 1-.061-.079.214.214 0 0 1 0-.187.244.244 0 0 1 .061-.079.296.296 0 0 1 .09-.051.316.316 0 0 1 .106-.015h58.826a.316.316 0 0 1 .106.015.296.296 0 0 1 .09.051.244.244 0 0 1 .061.079.219.219 0 0 1 0 .187.233.233 0 0 1-.061.079.276.276 0 0 1-.196.066Z"/>
  <path fill="#F4F4F4" d="M125.749 191.591H14.14L0 201.058v-50.116c0-1.872.832-3.668 2.314-4.992 1.481-1.325 3.49-2.069 5.586-2.069h117.849c2.095 0 4.104.744 5.586 2.069 1.481 1.324 2.313 3.12 2.313 4.992v33.588c0 1.873-.832 3.669-2.314 4.993-1.481 1.324-3.49 2.068-5.585 2.068Z"/>
  <path fill="#fff" d="M123.668 154.499H9.982a.352.352 0 0 1-.233-.086.28.28 0 0 1-.097-.209c0-.078.035-.153.097-.208a.352.352 0 0 1 .233-.086h113.686c.087 0 .171.031.233.086.062.055.097.13.097.208a.28.28 0 0 1-.097.209.352.352 0 0 1-.233.086Zm0 9.501H9.982a.356.356 0 0 1-.24-.082.307.307 0 0 1-.075-.097.271.271 0 0 1 .074-.327.356.356 0 0 1 .24-.083H123.67a.351.351 0 0 1 .226.09.28.28 0 0 1 .092.205.28.28 0 0 1-.092.204.351.351 0 0 1-.226.09Zm0 9.501H9.982a.356.356 0 0 1-.24-.082.307.307 0 0 1-.075-.097.27.27 0 0 1 .074-.327.345.345 0 0 1 .241-.083h113.686a.351.351 0 0 1 .226.09.28.28 0 0 1 .092.205.28.28 0 0 1-.092.204.351.351 0 0 1-.226.09Zm-19.769 9.501H9.982a.352.352 0 0 1-.233-.086.279.279 0 0 1-.097-.208c0-.078.035-.153.097-.208a.347.347 0 0 1 .233-.087h93.917c.088 0 .172.031.233.087.062.055.097.13.097.208a.279.279 0 0 1-.097.208.349.349 0 0 1-.233.086Z"/>
  <path fill="#F4F4F4" d="M196.717 223.855h133.067l16.861 11.291v-59.754c-.001-2.233-.993-4.374-2.76-5.952-1.766-1.578-4.161-2.465-6.659-2.465H196.717c-2.498 0-4.893.887-6.658 2.466-1.766 1.578-2.759 3.719-2.759 5.951v40.045c0 2.232.992 4.373 2.758 5.952 1.766 1.578 4.161 2.465 6.659 2.466Z"/>
  <path fill="#fff" d="M199.2 179.632h135.544a.412.412 0 0 0 .269-.107.332.332 0 0 0 .111-.244.332.332 0 0 0-.111-.244.412.412 0 0 0-.269-.107H199.2a.415.415 0 0 0-.27.107.33.33 0 0 0-.11.244.33.33 0 0 0 .11.244.415.415 0 0 0 .27.107Zm0 11.328h135.544a.412.412 0 0 0 .269-.107.332.332 0 0 0 .111-.244.332.332 0 0 0-.111-.244.412.412 0 0 0-.269-.107H199.2a.415.415 0 0 0-.27.107.33.33 0 0 0-.11.244.33.33 0 0 0 .11.244.415.415 0 0 0 .27.107Zm0 11.328h135.544a.412.412 0 0 0 .269-.107.332.332 0 0 0 .111-.244.332.332 0 0 0-.111-.244.412.412 0 0 0-.269-.107H199.2a.415.415 0 0 0-.27.107.33.33 0 0 0-.11.244.33.33 0 0 0 .11.244.415.415 0 0 0 .27.107Zm23.568 11.328h111.976a.412.412 0 0 0 .269-.107.332.332 0 0 0 .111-.244.332.332 0 0 0-.111-.244.412.412 0 0 0-.269-.107H222.768a.412.412 0 0 0-.269.107.332.332 0 0 0-.111.244c0 .091.04.179.111.244a.412.412 0 0 0 .269.107Z"/>
  <path fill="#F4F4F4" d="M303.299 121.493h111.607l14.142 9.468V80.845c0-1.873-.832-3.668-2.313-4.992-1.481-1.325-3.49-2.069-5.584-2.07H303.299c-2.095.001-4.103.745-5.585 2.07-1.481 1.324-2.313 3.12-2.313 4.992v33.587c0 1.872.832 3.668 2.313 4.993 1.481 1.324 3.49 2.068 5.585 2.068Z"/>
  <path fill="#fff" d="M305.381 84.401h113.685a.35.35 0 0 0 .233-.086.28.28 0 0 0 .097-.208.28.28 0 0 0-.097-.209.35.35 0 0 0-.233-.086H305.381a.352.352 0 0 0-.233.087.279.279 0 0 0-.096.208c0 .078.034.153.096.208a.351.351 0 0 0 .233.087Zm0 9.502h113.685a.348.348 0 0 0 .225-.09.277.277 0 0 0 .093-.205.277.277 0 0 0-.093-.205.348.348 0 0 0-.225-.09H305.381a.348.348 0 0 0-.225.09.28.28 0 0 0-.093.205c0 .076.034.15.093.205.059.055.14.087.225.09Zm0 9.502h113.685a.348.348 0 0 0 .225-.089.279.279 0 0 0 .093-.205.279.279 0 0 0-.093-.205.348.348 0 0 0-.225-.089H305.381a.348.348 0 0 0-.225.089.282.282 0 0 0-.093.205c0 .076.034.15.093.205.059.054.14.087.225.089Zm19.768 9.5h93.917a.349.349 0 0 0 .225-.09.277.277 0 0 0 .093-.205.276.276 0 0 0-.093-.204.349.349 0 0 0-.225-.09h-93.917a.348.348 0 0 0-.241.082.275.275 0 0 0-.074.328.313.313 0 0 0 .185.16c.042.014.086.02.13.019Zm-286.788 63.8h223.021c5.902 0 10.686-4.276 10.686-9.552V9.87c0-5.275-4.784-9.552-10.686-9.552H38.362c-5.902 0-10.686 4.277-10.686 9.552v157.283c0 5.276 4.784 9.552 10.686 9.552Z"/>
  <path fill="#292A2E" d="M27.32 167.153V9.871c.003-2.617 1.167-5.126 3.237-6.977C32.627 1.044 35.434.003 38.362 0h223.02c2.928.003 5.734 1.044 7.804 2.894 2.071 1.85 3.235 4.36 3.239 6.977v157.282c-.004 2.617-1.168 5.126-3.238 6.977-2.07 1.85-4.877 2.891-7.805 2.894H38.362c-2.928-.003-5.735-1.044-7.805-2.894-2.07-1.851-3.234-4.36-3.238-6.977ZM38.361.637c-2.739.003-5.365.976-7.301 2.707-1.937 1.732-3.026 4.079-3.03 6.527v157.282c.004 2.449 1.093 4.796 3.03 6.527 1.936 1.731 4.562 2.704 7.3 2.707h223.021c2.739-.002 5.365-.976 7.301-2.707 1.937-1.731 3.026-4.078 3.029-6.527V9.871c-.003-2.448-1.092-4.796-3.029-6.527-1.936-1.73-4.562-2.704-7.301-2.707H38.362Z"/>
  <path fill="#292A2E" d="M27.676 9.869v9.612h244.391V9.87c0-2.533-1.126-4.963-3.13-6.754-2.003-1.79-4.721-2.797-7.555-2.797H38.362a11.8 11.8 0 0 0-4.09.727 10.848 10.848 0 0 0-3.466 2.07 9.558 9.558 0 0 0-2.317 3.098 8.68 8.68 0 0 0-.813 3.656Z"/>
  <path fill="#E98862" d="M222.471 51.555c.07-.239.193-.462.362-.656.169-.194.38-.356.621-.474a2.253 2.253 0 0 1 1.594-.139c.502.16.917.485 1.162.908.244.424.299.914.155 1.373l-.693 2.368 6.013-6.577c.655-.742 1.99-1.278 2.871-.567.359.254.611.609.715 1.008a1.63 1.63 0 0 1-.141 1.186.15.15 0 0 1 .028.015.09.09 0 0 1 .015.016l1.01-1.144a2 2 0 0 1 .691-.5 2.234 2.234 0 0 1 1.735-.028c.274.11.517.273.711.477.303.332.468.746.468 1.174 0 .428-.165.843-.468 1.174l-.429.487c.01.018.017.038.019.058a2.184 2.184 0 0 1 1.312-.398c.476.01.934.17 1.291.45.388.327.623.774.656 1.25.034.475-.136.944-.474 1.312l-1.056 1.197a.195.195 0 0 1 .138.01.16.16 0 0 1 .055.04.147.147 0 0 1 .032.056 2.249 2.249 0 0 1 1.26-.098 2.08 2.08 0 0 1 1.08.59c.303.33.468.745.468 1.173 0 .428-.165.843-.468 1.174l-9.001 10.2c-1.259 1.426-2.966 2.484-4.903 3.038a11.369 11.369 0 0 1-5.965.07l-6.285-1.636 5.421-18.587Z"/>
  <path fill="#0C0C0C" d="M229.217 56.523a.201.201 0 0 0 .259-.026l5.71-6.262a.153.153 0 0 0 .041-.122.161.161 0 0 0-.068-.113.2.2 0 0 0-.263.024l-5.71 6.262a.156.156 0 0 0-.041.122.17.17 0 0 0 .068.113l.004.002Zm3.021 2.327a.205.205 0 0 0 .26-.026l6.374-6.987a.157.157 0 0 0 .041-.123.165.165 0 0 0-.068-.113.212.212 0 0 0-.263.024l-6.374 6.988a.157.157 0 0 0-.041.123.162.162 0 0 0 .068.113l.003.002Zm3.254 2.539a.21.21 0 0 0 .136.034.194.194 0 0 0 .124-.06l5.084-5.575a.154.154 0 0 0 .036-.12.166.166 0 0 0-.068-.11.201.201 0 0 0-.133-.036.196.196 0 0 0-.125.055l-5.084 5.574a.154.154 0 0 0-.02.185.18.18 0 0 0 .047.05l.003.002Z" opacity=".2"/>
  <path fill="#0A0A0A" d="M105.265 37.822s-2.35 10.587-5.602 14.149c-9.36 10.254-13.429 22.543-6.634 29.998 6.795 7.455 56.205 13.295 62.144-1.348 5-12.327-1.566-14.479-1.687-25.142-.055-4.825-.657-15-.657-15"/>
  <path fill="#E98862" d="M144.998 74.767c-.086-.01-1.041 14.153-19.444 12.916-12.74-.854-17.283-12.936-17.575-12.936 1.374-.261 3.687-.641 4.297-.932 2.006-.963 4.489-1.966 5.135-5.448.373-2.008-.259-12.276-.065-14.308l19.556 3.902c-.273 4.29-2.185 14.232 4.518 15.992 1.115.293 2.317.56 3.578.814Z"/>
  <path fill="#0C0C0C" d="M137.177 69.89a11.46 11.46 0 0 1-.589-2.713 25.877 25.877 0 0 1 .13-6.31c-3.975-.48-7.72-1.946-10.809-4.233-.363 1.2-2.36 6.437-1.807 7.576 1.044 2.154 5.955 5.68 13.075 5.68Z" opacity=".5"/>
  <path fill="#E98862" d="M133.778 66.519c-7.743-.228-17.237-4.113-17.961-13.453l-.654-8.429c-.725-9.34 4.176-17.252 14.015-17.861 9.838-.61 17.779 6.506 18.503 15.845l.29 3.731c.276 3.586-.38 20.573-14.193 20.167Z"/>
  <path fill="#fff" d="M132.981 55.932c1.082.48 3.331 1.121 6.453.15.34-.105.6.242.427.584-.662 1.315-2.175 2.833-4.831 2.313a3.34 3.34 0 0 1-1.784-.855 2.75 2.75 0 0 1-.855-1.639c-.071-.351.287-.687.59-.553Z"/>
  <path fill="#0C0C0C" d="M145.233 47.075c.671 0 1.215-.486 1.215-1.085 0-.6-.544-1.086-1.215-1.086s-1.214.486-1.214 1.086c0 .6.543 1.085 1.214 1.085Zm-12.467 0c.671 0 1.215-.486 1.215-1.085 0-.6-.544-1.086-1.215-1.086s-1.215.486-1.215 1.086c0 .6.544 1.085 1.215 1.085Z"/>
  <path fill="#0C0C0C" d="M138.499 54.174h.02a12.11 12.11 0 0 0 1.188-.14c.588-.103 1.364-.294 1.328-.76-.043-.533-2.117-6.174-2.354-6.815a.233.233 0 0 0-.126-.123.275.275 0 0 0-.185-.01.244.244 0 0 0-.142.107.205.205 0 0 0-.02.165c.887 2.403 2.303 6.348 2.331 6.706-.087.155-1.066.365-2.055.425a.262.262 0 0 0-.166.074.211.211 0 0 0-.063.155.214.214 0 0 0 .074.152c.046.04.107.063.17.064Z" opacity=".5"/>
  <path fill="#0A0A0A" d="m107.085 46.698 8.813-.503c6.845-1.672 10.159-11.572 10.159-11.572s7.02 7.753 26.77 5.855c0 0-.682-24.38-30.013-20.415-9.458 1.279-17.125 8.835-17.766 19.95-.449 7.789 2.037 6.685 2.037 6.685Z"/>
  <path fill="#E98862" d="M116.649 55.874c-2.99.185-5.635-2.523-5.843-5.196-.207-2.673 2.102-4.296 5.092-4.481l1.679 1.695 1.644 7.823-2.572.16Z"/>
  <path fill="#0C0C0C" d="M141.055 41.987a6.227 6.227 0 0 1 2.927-.505 5.47 5.47 0 0 1 1.452.29c.462.159.9.368 1.303.624.047.029.08.073.091.123a.177.177 0 0 1-.03.146.221.221 0 0 1-.135.085.242.242 0 0 1-.163-.022l-.015-.008a5.705 5.705 0 0 0-1.217-.53 4.952 4.952 0 0 0-1.318-.216 5.546 5.546 0 0 0-2.564.526l-.023.01a.364.364 0 0 1-.251.026.33.33 0 0 1-.198-.142.27.27 0 0 1-.028-.224.303.303 0 0 1 .158-.177l.011-.006Zm-7.918 1.044a5.628 5.628 0 0 0-2.62-.214 4.822 4.822 0 0 0-1.273.372 5.49 5.49 0 0 0-1.128.67l-.013.01a.24.24 0 0 1-.31-.023.18.18 0 0 1-.052-.144.195.195 0 0 1 .078-.134 5.901 5.901 0 0 1 1.197-.773 5.367 5.367 0 0 1 1.395-.461 6.294 6.294 0 0 1 2.977.15.32.32 0 0 1 .189.151c.039.07.044.152.015.226a.307.307 0 0 1-.168.17.365.365 0 0 1-.252.013l-.011-.004-.024-.009Z"/>
  <path stroke="#0C0C0C" stroke-miterlimit="10" stroke-width=".5" d="M125.973 33.542s1.573 10.045-10.072 12.448"/>
  <path fill="#0C0C0C" d="M132.987 52.531c.01-.838-1.018-1.527-2.296-1.539-1.278-.012-2.322.658-2.332 1.495-.01.838 1.018 1.527 2.296 1.539 1.278.012 2.322-.657 2.332-1.495Zm11.445-.256c-.007.836 1.02 1.525 2.298 1.538.221.002.441-.016.658-.055.201-.975.343-1.92.438-2.799a3.226 3.226 0 0 0-1.061-.18c-1.28-.014-2.324.657-2.333 1.496Z" opacity=".1"/>
  <path fill="#262626" d="m83.449 158.902-3.33 18.148h83.058l-3.105-18.257-76.623.109Z"/>
  <path fill="#367CFF" d="M125.132 84.164c-12.749-.537-13.286-10.209-13.286-10.209s-6.316.365-10.517.873c-6.875.832-11.41 2.916-15.02 6.142-3.357 3.002-5.401 6.248-3.238 26.98 1.566 15.012.378 50.954.378 50.954l76.623-.109s7.149-46.092 7.792-52.85c1.228-12.9-1.388-23.805-4.384-26.483-6.16-5.507-16.764-5.507-22.062-5.506-.084-.002 1.076 10.94-16.286 10.208Z"/>
  <path fill="#367CFF" d="m216.262 60.109-24.777 40.598-29.567-22.403-18.181 19.172 42.729 32.378.306.235a14.469 14.469 0 0 0 5.539 2.515 15.4 15.4 0 0 0 6.212.091 14.592 14.592 0 0 0 5.627-2.353c1.652-1.157 2.987-2.634 3.904-4.321l30.264-55.758-22.056-10.154ZM90.854 142.164l4.664 34.223H67.404l-4.69-36.358a11.405 11.405 0 0 1 .91-4.562l20.36-51.381 26.73 8.124-19.86 49.954Z"/>
  <path fill="#0C0C0C" d="m95.304 176.411-4.671-34.273.02-.045 12.849-29.15.403.142-12.83 29.104 4.658 34.175-.43.047Zm72.674-71.991-1.55 11.018.371.041 1.551-11.017-.372-.042Z"/>
  <path fill="#292A2E" d="M442.12 353.056H9.363a.32.32 0 0 1-.214-.079.258.258 0 0 1-.089-.192c0-.071.032-.14.089-.191a.32.32 0 0 1 .214-.079H442.12c.081 0 .158.028.214.079.057.051.089.12.089.191a.258.258 0 0 1-.089.192.317.317 0 0 1-.214.079Z"/>
  <path fill="#292A2E" d="M442.12 353.056H9.363a.32.32 0 0 1-.214-.079.258.258 0 0 1-.089-.192c0-.071.032-.14.089-.191a.32.32 0 0 1 .214-.079H442.12c.081 0 .158.028.214.079.057.051.089.12.089.191a.258.258 0 0 1-.089.192.317.317 0 0 1-.214.079Z" opacity=".65"/>
  <path fill="#fff" d="M149.872 167.779c11.188 0 20.257-8.107 20.257-18.108 0-10-9.069-18.107-20.257-18.107s-20.258 8.107-20.258 18.107c0 10.001 9.07 18.108 20.258 18.108Z" opacity=".49"/>
  <path fill="#fff" d="M149.872 163.081c8.285 0 15.002-6.003 15.002-13.41 0-7.406-6.717-13.409-15.002-13.409s-15.002 6.003-15.002 13.409c0 7.407 6.717 13.41 15.002 13.41Z"/>
  <path fill="#0CBC8B" d="M159.982 154.085a.735.735 0 0 1 .343.447.667.667 0 0 1-.096.535l-.982 1.463a1.988 1.988 0 0 1-1.175.812c-1.632.4-5.231.481-11-4.676-5.769-5.156-5.679-8.374-5.231-9.833.141-.441.466-.818.908-1.051l1.637-.877a.898.898 0 0 1 .599-.086.823.823 0 0 1 .5.307l2.609 3.499a.666.666 0 0 1 .126.52.72.72 0 0 1-.304.459l-1.465 1.018a.722.722 0 0 0-.301.428.659.659 0 0 0 .084.5c.43.692.838 1.506 2.855 3.312 2.017 1.807 2.933 2.169 3.706 2.553.17.084.368.11.558.075a.83.83 0 0 0 .478-.269l1.14-1.309a.837.837 0 0 1 .513-.272.893.893 0 0 1 .583.113l3.915 2.332Z"/>
  <path fill="#367CFF" d="M380.8 191.377c-21.539 0-39 5.252-39 11.732v13.967h78v-13.967c0-6.48-17.461-11.732-39-11.732Z"/>
  <path fill="#fff" d="M380.8 191.377c-21.539 0-39 5.252-39 11.732v13.967h78v-13.967c0-6.48-17.461-11.732-39-11.732Z" opacity=".49"/>
  <path fill="#fff" d="M409.176 203.11v13.965h-67.377V203.11c0-5.939 14.665-10.846 33.688-11.622 19.026.775 33.689 5.683 33.689 11.622Z" opacity=".49"/>
  <path fill="#292A2E" d="m419.8 352.789 1.297-1.17-1.297-135.782-1.298 1.17.926 95.665-46.205.701-.932-96.376-1.298.01.932 96.386-27.892.424-.936-96.82-1.298-1.15 1.298 135.782 1.298 1.15-.351-37.802 27.892-.423.355 38.235 1.297-.01-.354-38.245 46.205-.702.361 38.957Z"/>
  <path fill="#367CFF" d="M300.648 332.28s-2.319 10.748-13.576 11.347c-11.256.598-8.815 8.615-8.815 8.615h43.017V333.03l-20.626-.75Zm24.544-32.324s3.226 10.559-6.58 15.538c-9.805 4.979-3.656 11.209-3.656 11.209l38.6-16.976-9.487-17.237-18.877 7.466Z"/>
  <path fill="#262626" d="m321.108 306.935-29.085-98.096c-2.207-10.837 1.115-15.534 6.233-20.097 8.991-8.017 46.25-25.081 46.25-25.081l44.697-.108c11.853 0 23.504 10.447 23.504 21.041 0 10.594-12.049 19.579-23.901 19.579l-55.042 4.911 14.92 89.819-27.576 8.032Z"/>
  <path fill="#0C0C0C" d="m348.685 298.902-5.874-35.361-29.758 16.227 8.055 27.167 27.577-8.033Zm6.745-115.39s-18.79 3.744-37.399 20.378c-11.283 10.086-10.358 28.337-8.666 63.44l18.483-24.403 20.272-32.683 7.31-26.732Z"/>
  <path fill="#262626" d="m420.488 163.541-30.355-.128-.012.357h-9.191s-23.024 18.939-41.561 30.873c-13.484 8.68-21.709 16.956-22.421 25.975-1.735 21.987-21.303 115.759-21.303 115.759l29.45 3.987 25.843-112.063s40.413-16.653 49.761-22.449c8.802-5.458 15.019-7.567 17.932-13.523 5.031-10.287 1.857-28.788 1.857-28.788Z"/>
  <path fill="#0C0C0C" d="M363.145 44.774s-4.769-4.62-4.4-13.417c.285-6.812 6.267-1.401 6.267-1.401s.26-4.904 4.064-3.797c3.804 1.106 4.974 6.49 4.974 6.49m15.086-2.667s18.99 4.988 7.239 27.313l-1.734-.175-3.521-.354"/>
  <path fill="#E98862" d="M362.224 80.451c.086-.01 1.046 14.23 19.554 12.99 12.813-.858 17.382-13.01 17.675-13.01-1.381-.262-3.088-.66-3.767-.797-1.479-.307-2.818-1.01-3.839-2.013-1.022-1.004-1.677-2.261-1.879-3.606-.375-2.02.259-12.346.065-14.389l-19.667 3.924c.275 4.314 2.198 14.314-4.542 16.084a66.925 66.925 0 0 1-3.6.817Z"/>
  <path fill="#0C0C0C" d="M370.09 75.547c.308-.888.506-1.803.591-2.729a25.974 25.974 0 0 0-.13-6.346c3.998-.483 7.764-1.957 10.871-4.257.365 1.205 2.373 6.473 1.816 7.617-1.049 2.168-5.988 5.715-13.148 5.715Z" opacity=".52"/>
  <path fill="#E98862" d="M373.301 71.013c7.759.623 17.77-2.21 19.778-11.454l1.812-8.34c2.008-9.242-1.796-17.678-11.532-19.368-9.736-1.69-18.641 4.54-20.648 13.783l-.802 3.692a25.609 25.609 0 0 0-.46 3.849c-.173 3.41-.422 8.597 1.413 12.43 1.732 3.618 5.481 5.01 10.439 5.408Z"/>
  <path fill="#fff" d="M367.532 61.08c2.889.298 5.806-.273 8.291-1.622a.582.582 0 0 1 .568.012c.084.05.15.12.19.203a.426.426 0 0 1 .039.262c-.277 1.522-1.276 4.299-4.888 4.5-2.331.13-3.925-1.534-4.715-2.629a.442.442 0 0 1-.085-.255.44.44 0 0 1 .082-.255.52.52 0 0 1 .224-.176.584.584 0 0 1 .294-.04Z"/>
  <path fill="#0C0C0C" d="M365.04 51.655c.675 0 1.222-.489 1.222-1.092 0-.603-.547-1.092-1.222-1.092-.674 0-1.221.49-1.221 1.092 0 .603.547 1.092 1.221 1.092Zm11.877 1.241c.675 0 1.222-.489 1.222-1.092 0-.603-.547-1.092-1.222-1.092-.674 0-1.221.49-1.221 1.092 0 .603.547 1.092 1.221 1.092Z"/>
  <path fill="#E98862" d="M391.862 62.27c2.959.514 5.973-1.9 6.547-4.544.574-2.645-1.508-4.52-4.466-5.033l-1.91 1.508-2.714 7.628 2.543.441Z"/>
  <path fill="#0C0C0C" d="M389.775 57.533s1.653-13.271-2.63-14.8c-2.853-1.018-10.795 1.575-17.217-.635-2.812-.967-5.703-.77-6.233.413-.21.468-.606-6.817 5.025-11.386 4.484-3.638 16.601-2.91 21.723-.65 14.182 6.256 3.996 22.894 3.996 22.894l-1.583 4.412-3.081-.248Z"/>
  <path fill="#0C0C0C" d="m370.307 58.59-.02-.003c-.951-.163-2.533-.532-2.397-1.17.113-.529 2.954-5.957 3.278-6.574a.219.219 0 0 1 .056-.072.252.252 0 0 1 .083-.047.274.274 0 0 1 .193.007c.03.012.057.03.079.052a.222.222 0 0 1 .05.076.2.2 0 0 1-.014.172c-1.26 2.404-3.162 6.11-3.239 6.47.061.167 1.017.483 2.004.653a.248.248 0 0 1 .154.09.204.204 0 0 1 .043.16.22.22 0 0 1-.093.141.272.272 0 0 1-.177.046v-.001Z" opacity=".52"/>
  <path fill="#0C0C0C" d="M369.631 45.288a6.496 6.496 0 0 0-3.069-.495 5.704 5.704 0 0 0-1.507.32c-.476.17-.925.392-1.338.663a.326.326 0 0 0-.158.202.297.297 0 0 0 .049.242.364.364 0 0 0 .227.14.395.395 0 0 0 .271-.043l.025-.013a5.629 5.629 0 0 1 1.2-.509 4.86 4.86 0 0 1 1.288-.199 5.386 5.386 0 0 1 2.476.53l.032.016a.59.59 0 0 0 .6-.037.501.501 0 0 0 .138-.143.43.43 0 0 0 .052-.367.448.448 0 0 0-.094-.17.53.53 0 0 0-.159-.123c-.011-.003-.022-.009-.033-.014Zm7.004 1.691a5.469 5.469 0 0 1 2.546-.024 4.63 4.63 0 0 1 1.205.45 5.26 5.26 0 0 1 1.044.734l.02.017a.38.38 0 0 0 .253.094.385.385 0 0 0 .254-.092.306.306 0 0 0 .107-.225.3.3 0 0 0-.1-.227 5.89 5.89 0 0 0-1.14-.913 5.462 5.462 0 0 0-1.389-.612 6.56 6.56 0 0 0-3.115-.128.542.542 0 0 0-.336.216.439.439 0 0 0-.067.366.487.487 0 0 0 .241.3.59.59 0 0 0 .409.06l.032-.007.036-.01Zm2.36-14.129c1.259-2.78.568-5.652-1.544-6.417-2.112-.765-4.845.867-6.105 3.646-1.26 2.779-.569 5.651 1.543 6.417 2.112.765 4.846-.868 6.106-3.646Z"/>
  <path fill="#367CFF" d="M339.228 111.804c.583 6.122 4.715 44.317 5.278 51.857h75.949c.436-6.801 2.395-36.54 4.05-49.84 1.58-12.691 3.794-18.467 1.975-22.41-3.21-6.957-13.423-10.063-20.34-10.9-4.224-.511-10.576-.877-10.576-.877s-.538 9.726-13.363 10.267c-17.458.734-16.293-10.267-16.379-10.267-2.828 0-18.224 1.838-22.073 4.081-5.437 3.168-7.044 7.485-7.108 11.451-.073 4.566 1.925 9.694 2.587 16.638Z"/>
  <path fill="#E98862" d="M272.332 79.059a1.861 1.861 0 0 0-.51-.571 2.105 2.105 0 0 0-.72-.345 2.26 2.26 0 0 0-1.591.168c-.452.253-.779.65-.917 1.11-.137.46-.074.95.177 1.37l1.24 2.182-7.448-5.277c-.816-.6-2.249-.868-2.941-.005-.29.317-.452.712-.459 1.121-.006.41.143.808.423 1.132a.128.128 0 0 0-.025.02.138.138 0 0 0-.011.019l-1.259-.925a2.132 2.132 0 0 0-.795-.357 2.26 2.26 0 0 0-.889-.019 2.157 2.157 0 0 0-.813.323c-.241.16-.439.366-.58.603a1.68 1.68 0 0 0-.176 1.236c.102.418.363.791.738 1.057l.536.394a.154.154 0 0 0-.005.06 2.244 2.244 0 0 0-1.377-.138 2.05 2.05 0 0 0-1.154.686 1.724 1.724 0 0 0-.342 1.346c.081.47.359.897.778 1.192l1.317.967a.205.205 0 0 0-.087.012.192.192 0 0 0-.071.047.153.153 0 0 0-.036.088 2.244 2.244 0 0 0-1.255.145c-.39.167-.711.441-.914.782a1.685 1.685 0 0 0-.176 1.237c.103.418.363.791.738 1.057l11.231 8.245c1.571 1.153 3.492 1.86 5.516 2.032a11.236 11.236 0 0 0 5.844-1.07l5.749-2.8-9.736-17.124Z"/>
  <path fill="#0C0C0C" d="M266.928 85.201a.203.203 0 0 1-.259.024l-7.076-5.027a.176.176 0 0 1-.047-.05.142.142 0 0 1-.022-.062.154.154 0 0 1 .039-.123.2.2 0 0 1 .198-.057.191.191 0 0 1 .065.03l7.076 5.027c.019.014.035.03.047.05a.156.156 0 0 1 .016.127.167.167 0 0 1-.033.058l-.004.003Zm-2.393 2.851a.194.194 0 0 1-.124.059.206.206 0 0 1-.136-.035l-7.897-5.61a.178.178 0 0 1-.047-.05.156.156 0 0 1-.016-.126.167.167 0 0 1 .033-.058.203.203 0 0 1 .126-.06.209.209 0 0 1 .137.033l7.897 5.609c.019.014.035.03.047.05a.156.156 0 0 1 .016.127.167.167 0 0 1-.033.058l-.003.003Zm-2.572 3.101a.203.203 0 0 1-.26.024l-6.3-4.476a.16.16 0 0 1-.069-.112.153.153 0 0 1 .039-.123.203.203 0 0 1 .263-.027l6.299 4.474a.16.16 0 0 1 .069.112.153.153 0 0 1-.039.123l-.002.005Z" opacity=".2"/>
  <path fill="#E98862" d="M379.894 177.87c-.268.056-.52.161-.742.307a1.908 1.908 0 0 0-.545.544 1.68 1.68 0 0 0-.261.693c-.033.244-.011.492.067.728.167.453.52.832.988 1.06.468.229 1.015.29 1.532.172l2.664-.56-7.501 5.216c-.846.567-1.477 1.746-.703 2.552.275.327.666.561 1.109.664.443.103.912.069 1.331-.098a.135.135 0 0 0 .015.026.22.22 0 0 0 .018.014l-1.303.874c-.24.162-.437.368-.577.606a1.641 1.641 0 0 0-.074 1.55c.117.247.294.468.518.647.363.278.823.436 1.301.446a2.24 2.24 0 0 0 1.324-.391l.555-.372c.02.01.042.016.064.019a1.697 1.697 0 0 0-.476 1.163c-.001.426.166.838.472 1.165a2.2 2.2 0 0 0 1.381.616 2.285 2.285 0 0 0 1.481-.392l1.363-.915a.151.151 0 0 0 .027.151.18.18 0 0 0 .087.052c-.18.352-.229.746-.14 1.125.088.378.31.721.632.979.364.278.824.436 1.302.446.479.01.946-.128 1.324-.391l11.625-7.796c1.626-1.091 2.851-2.591 3.517-4.308a8.2 8.2 0 0 0 .223-5.329l-1.678-5.656-20.92 4.393Z"/>
  <path fill="#0C0C0C" d="M385.287 184.02a.15.15 0 0 1 .035.122.164.164 0 0 1-.07.11l-7.143 4.951a.167.167 0 0 1-.065.029.199.199 0 0 1-.197-.058.182.182 0 0 1-.033-.059.156.156 0 0 1 .018-.127.186.186 0 0 1 .048-.049l7.142-4.95a.197.197 0 0 1 .138-.034c.05.005.094.028.125.063l.002.002Zm2.531 2.755a.156.156 0 0 1 .035.122.165.165 0 0 1-.071.11l-7.969 5.527a.207.207 0 0 1-.138.034.198.198 0 0 1-.125-.063.165.165 0 0 1-.035-.124.169.169 0 0 1 .069-.111l7.968-5.526a.198.198 0 0 1 .138-.034c.05.005.094.028.125.063l.003.002Zm2.759 2.969a.154.154 0 0 1 .035.123.164.164 0 0 1-.07.109l-6.359 4.408a.208.208 0 0 1-.136.03.194.194 0 0 1-.121-.064.153.153 0 0 1-.038-.12.161.161 0 0 1 .065-.11l6.359-4.409a.207.207 0 0 1 .138-.034.195.195 0 0 1 .124.064l.003.003Z" opacity=".2"/>
  <path fill="#367CFF" d="m451.647 138.227-.143-.263-25.262-46.684-25.312 10.945 20.92 38.659-36.102 32.377 17.427 16.279 45.392-37.025c2.164-1.769 3.632-4.115 4.187-6.688.554-2.574.166-5.239-1.107-7.6Z"/>
  <path fill="#0C0C0C" d="M396.451 163.855a.235.235 0 0 1-.12-.033.202.202 0 0 1-.08-.087.18.18 0 0 1-.012-.112.187.187 0 0 1 .06-.099l25.717-22.679-19.12-34.278a.2.2 0 0 1-.027-.074.173.173 0 0 1 .009-.078.177.177 0 0 1 .041-.068.209.209 0 0 1 .069-.048.22.22 0 0 1 .084-.02.228.228 0 0 1 .161.052c.021.018.038.04.05.064l19.192 34.402c.02.036.027.078.019.118a.19.19 0 0 1-.062.105l-25.831 22.778a.23.23 0 0 1-.15.057Z"/>
  <path fill="#367CFF" d="m341.846 84.888-35.338 29.148-26.011-29.061-17.346 15.594L292.2 136.55c2.612 4.668 8.238 7.494 14.019 6.753 2.238-.287 4.362-1.067 6.179-2.27l.656-.433 47.406-35.462-18.614-20.25Z"/>
  <path fill="#0C0C0C" d="M340.249 120.268a.232.232 0 0 1-.143-.048.19.19 0 0 1-.073-.12l-1.644-11.021a.18.18 0 0 1 .044-.141.236.236 0 0 1 .301-.036.196.196 0 0 1 .084.126l1.644 11.02a.182.182 0 0 1-.043.144.221.221 0 0 1-.143.074l-.027.002Zm-29.378-.369a.244.244 0 0 1-.11-.026.211.211 0 0 1-.08-.074l-4.362-5.67a.174.174 0 0 1-.018-.147.198.198 0 0 1 .103-.116.243.243 0 0 1 .164-.016.212.212 0 0 1 .13.092l4.362 5.671a.181.181 0 0 1 .027.096.18.18 0 0 1-.03.095.214.214 0 0 1-.079.07.234.234 0 0 1-.107.025Z"/>
</svg>
