<svg xmlns="http://www.w3.org/2000/svg" width="494" height="355" fill="none" viewBox="0 0 494 355">
  <path fill="#DEE8F5" d="m371.045 9.04-6.938 5.03 13.595 29.564 6.938-5.03L371.045 9.04Z"/>
  <path fill="#DEE8F5" d="M365.857 9.268h-8.011v34.138h8.011V9.268ZM412.519 0h-8.012v43.405h8.012V0Z"/>
  <path fill="#C1D8ED" d="M404.279 9.268h-8.012v34.138h8.012V9.268Zm16.252-4.388h-8.012v38.525h8.012V4.88Z"/>
  <path fill="#DEE8F5" d="M396.142 3.678h-12.796v39.727h12.796V3.678Z"/>
  <path fill="#8DDBE0" d="M433.368 32.062s-.038-16.98 6.754-20.526c6.793-3.547-3.377 20.526-3.377 20.526h-3.377Z"/>
  <path fill="#8DDBE0" d="M436.745 32.062S440.292.278 433.044.278c-7.247 0 .324 31.786.324 31.786"/>
  <path fill="#8DDBE0" d="M434.572 33.462s-3.401-28.332-9.468-26.057c-6.068 2.275 7.081 26.951 7.081 26.951l2.387-.894Z"/>
  <path fill="#DEE8F5" d="M441.26 23.542h-15.821v19.863h15.821V23.542Z"/>
  <path fill="#C1D8ED" d="M447.706 43.405H353.84v4.414h93.866v-4.414Z"/>
  <path fill="#DEE8F5" d="M426.86 43.405h-73.02v4.414h73.02v-4.414Z"/>
  <path fill="#F3F5FD" d="M493.357 354.83H0c5.406-17.309 15.39-31.992 29.462-36.348 20.587-6.364 42.373 11.135 62.914 4.555 11.67-3.734 20.858-14.616 30.512-23.652 36.421-34.096 86.331-44.17 129.434-26.125 22.527 9.427 43.054 25.915 66.131 32.924 29.842 9.068 61.048 1.548 91.736.31 29.886-1.207 72.708 14.085 83.168 48.336Z"/>
  <path fill="#C1D8ED" d="M66.956 246.314 44.444 353.767l3.21 1.06 22.511-107.453-3.21-1.06Zm39.892.207-3.278.646 13.419 107.455 3.278-.646-13.419-107.455Z"/>
  <path fill="#C1D8ED" d="M63.942 143.768s-27.414-2.173-27.414 27.898c0 30.071 4.037 72.099 24.24 76.81 20.203 4.71 50.044 3.289 56.973 1.815 8.512-1.811 12.223-26.604.885-28.263-32.178-4.711-16.593-74.999-54.684-78.26Zm263.626 102.545-3.209 1.06 22.508 107.454 3.21-1.059-22.509-107.455Zm-39.893.207-13.422 107.454 3.278.645 13.422-107.454-3.278-.645Z"/>
  <path fill="#C1D8ED" d="M330.582 143.768s27.414-2.173 27.414 27.898c0 30.071-4.037 72.099-24.24 76.81-20.202 4.71-50.044 3.289-56.972 1.815-8.513-1.811-12.224-26.604-.885-28.263 32.172-4.711 16.59-74.999 54.683-78.26Z"/>
  <path fill="#0F1011" d="M103.338 98.732c.166 2.548 2.064 5.171 1.715 7.569-.361 2.485-2.892 4.092-3.736 6.319-.855 2.261-.255 5.735-1.538 7.629-1.283 1.895-4.11 1.711-5.752 3.136-1.616 1.404-2.472 4.8-4.366 5.646-1.831.819-4.2-1.111-6.228-.903-2.03.209-4.119 2.592-6.03 2.153-1.978-.453-3.259-3.631-5.032-4.69-1.8-1.074-4.568-.32-6.077-1.931-1.51-1.611-1.362-5.161-2.497-7.222-1.118-2.029-3.823-3.104-4.497-5.486-.653-2.3.885-5.272.719-7.82-.166-2.549-2.065-5.17-1.715-7.57.36-2.484 2.892-4.092 3.735-6.319.856-2.26.255-5.734 1.539-7.63 1.283-1.894 4.11-1.71 5.75-3.134 1.615-1.405 2.47-4.8 4.366-5.647 1.831-.819 4.198 1.111 6.228.903 2.03-.209 4.118-2.592 6.029-2.153 1.979.453 3.26 3.63 5.033 4.69 1.8 1.074 4.567.32 6.077 1.93 1.51 1.611 1.362 5.162 2.496 7.223 1.119 2.029 3.823 3.103 4.498 5.481.657 2.305-.882 5.278-.717 7.826Z"/>
  <path fill="#E98862" d="M72.72 128.486s4.278-2.842 3.334-17.466l8.838-2.047s-1.002 13.109 3.465 17.276l-15.637 2.237Z"/>
  <path fill="#000" d="m86.549 123.506-7.337-7.059 5.766-.069a24.01 24.01 0 0 0 1.57 7.128Z" opacity=".15"/>
  <path fill="#E98862" d="M71.044 105.344c.609 4.438 2.534 8.641 5.65 10.077 3.396 1.697 7.071 2.325 10.705 1.828 9.674-.984 7.78-28.603 3.192-33.971-4.59-5.37-18.07-1.988-19.716 6.982-.851 4.64-.411 10.862.17 15.084Z"/>
  <path fill="#0F1011" d="M84.885 101.944c.442 0 .801-.451.801-1.007 0-.555-.359-1.006-.801-1.006-.443 0-.802.451-.802 1.006 0 .556.36 1.007.802 1.007Zm6.323-.644c.443 0 .802-.451.802-1.006 0-.556-.359-1.007-.802-1.007-.442 0-.801.451-.801 1.007 0 .555.359 1.006.801 1.006Zm1.391-3.15h-.006l-2.122-.035a.344.344 0 0 1-.266-.14.542.542 0 0 1-.109-.336.54.54 0 0 1 .112-.333.342.342 0 0 1 .268-.136h.005l2.123.036c.097.005.19.058.256.146a.544.544 0 0 1 .104.33c0 .121-.04.239-.107.326a.347.347 0 0 1-.258.143Zm-9.442.962a.337.337 0 0 1-.251-.118.568.568 0 0 1-.059-.626.386.386 0 0 1 .223-.189l2.093-.63c.049-.016.1-.02.15-.012a.33.33 0 0 1 .14.062.424.424 0 0 1 .112.126.592.592 0 0 1 .015.534.445.445 0 0 1-.104.136.342.342 0 0 1-.138.074l-2.093.63a.322.322 0 0 1-.088.013Z"/>
  <path fill="#fff" d="M85.25 108.862s2.959.395 5.033-.512c0 0-.018 2.446-2.36 2.684-2.34.239-2.673-2.172-2.673-2.172Z"/>
  <path fill="#0F1011" d="M77.561 93.859c.58 10.398-.331 20.843-2.691 30.837 0 0-6.744-14.6-7.787-26.757-.978-11.396 5.715-18.115 10.232-19.38 17.175-4.8 18.41 10.95 18.41 10.95-3.128 8.169-20.021 8.133-20.021 8.133"/>
  <path fill="#E98862" d="M80.835 105.269c.062 1.12-.23 2.226-.813 3.078-.583.851-1.41 1.38-2.302 1.47-.891.091-1.775-.263-2.46-.985-.685-.723-1.115-1.755-1.197-2.873a5.219 5.219 0 0 1 .136-1.663 4.6 4.6 0 0 1 .643-1.464 3.58 3.58 0 0 1 1.047-1.032c.4-.253.838-.402 1.285-.438 2.422-.096 3.51 1.559 3.661 3.907Z"/>
  <path fill="#000" d="M88.44 106.525a.249.249 0 0 1-.183-.083.417.417 0 0 1-.054-.45.292.292 0 0 1 .155-.147l1.63-.625-1.137-3.189a.418.418 0 0 1 .046-.388.29.29 0 0 1 .09-.081.23.23 0 0 1 .106-.03.23.23 0 0 1 .109.025.284.284 0 0 1 .092.075.367.367 0 0 1 .061.115l1.266 3.548a.427.427 0 0 1 0 .285.346.346 0 0 1-.07.117.272.272 0 0 1-.101.072l-1.93.742a.225.225 0 0 1-.08.014Z" opacity=".15"/>
  <path fill="#E98862" d="M321.714 128.768s-4.378-2.917-3.401-17.882l-9.044-2.106s1.016 13.419-3.56 17.68l16.005 2.308Z"/>
  <path fill="#000" d="m307.562 123.654 7.515-7.217-5.899-.076a24.563 24.563 0 0 1-1.616 7.293Z" opacity=".15"/>
  <path fill="#E98862" d="M323.447 105.083c-.626 4.54-2.599 8.84-5.79 10.308-3.478 1.732-7.24 2.371-10.959 1.859-9.9-1.02-7.943-29.288-3.242-34.779 4.701-5.49 18.497-2.014 20.176 7.171.866 4.75.41 11.119-.185 15.441Z"/>
  <path fill="#0F1011" d="M317.783 114.847c.188.756.32 1.085.861.681 2.127-1.587 6.346-5.039 7.977-17.971 1.461-11.589-4.233-16.368-8.773-18.073-3.914-1.47-13.048-1.772-17.335 1.471-3.694 2.796 0 9.299 0 9.299 1.633.094 1.962 1.856 5.814 1.856 2.977 0 1.936-.139 4.725-.11 4.961.05 3.358 4.63 3.268 5.88-.259 3.576 1.88 5.471 2.201 8.459.25 2.872.672 5.716 1.262 8.508Z"/>
  <path fill="#E98862" d="M313.547 103.075a5.464 5.464 0 0 0 .141 1.708c.137.552.36 1.064.655 1.507.296.443.659.808 1.068 1.074.409.266.855.427 1.314.474.459.047.921-.02 1.359-.199a3.355 3.355 0 0 0 1.192-.841c.349-.377.635-.837.842-1.354a5.266 5.266 0 0 0 .361-1.656 5.338 5.338 0 0 0-.139-1.702 4.685 4.685 0 0 0-.657-1.499c-.297-.44-.661-.8-1.071-1.058a2.898 2.898 0 0 0-1.315-.45c-2.478-.1-3.591 1.593-3.75 3.996Z"/>
  <path fill="#0F1011" d="m315.077 89.224 2.561 1.18s-.909 16.063-1.625 20.454c-.717 4.391-2.722 7.25-4.994 7.495-3.49.375-6.018.405-8.577-.743-2.887-1.295-2.482-11.021-2.482-11.021s9.287 1.263 11.857-.287c2.571-1.55 3.26-17.078 3.26-17.078Z"/>
  <path fill="#0F1011" d="M309.281 101.584c.453 0 .821-.461.821-1.03s-.368-1.03-.821-1.03c-.453 0-.82.461-.82 1.03s.367 1.03.82 1.03Zm-6.471-.666c.453 0 .82-.461.82-1.03s-.367-1.03-.82-1.03c-.453 0-.82.461-.82 1.03s.367 1.03.82 1.03Zm-1.422-3.225a.366.366 0 0 1-.249-.155.562.562 0 0 1-.102-.326.57.57 0 0 1 .099-.327.368.368 0 0 1 .247-.16l2.173-.034a.371.371 0 0 1 .27.144.559.559 0 0 1 .011.678.356.356 0 0 1-.271.146l-2.173.034h-.005Zm9.664.995a.317.317 0 0 1-.091-.013l-2.142-.648a.338.338 0 0 1-.15-.069.44.44 0 0 1-.116-.139.577.577 0 0 1-.056-.387.551.551 0 0 1 .069-.181.433.433 0 0 1 .121-.131.315.315 0 0 1 .312-.033l2.143.646a.407.407 0 0 1 .219.198.592.592 0 0 1 .064.329.54.54 0 0 1-.123.3.351.351 0 0 1-.25.128Z"/>
  <path fill="#000" d="M305.638 106.267a.22.22 0 0 1-.084-.016l-1.974-.764a.254.254 0 0 1-.104-.073.335.335 0 0 1-.071-.12.424.424 0 0 1 0-.293l1.298-3.63a.316.316 0 0 1 .158-.18.23.23 0 0 1 .213.009.333.333 0 0 1 .148.194.446.446 0 0 1-.002.268l-1.167 3.264 1.668.643a.3.3 0 0 1 .154.15.43.43 0 0 1 .04.241.388.388 0 0 1-.094.216.256.256 0 0 1-.183.087v.004Z" opacity=".15"/>
  <path fill="#fff" d="M308.901 108.666s-3.028.401-5.151-.53c0 0 .017 2.504 2.413 2.75 2.396.247 2.738-2.22 2.738-2.22Z"/>
  <path fill="#0F1011" d="M322.784 82.668s-2.675 4.236-12.604-4.244c-9.928-8.48-13.65-2.331-13.65 1.424s-1.631 12.201 8.65 12.201"/>
  <path fill="#E98862" d="M351.953 143.861s-.309-8.333 4.451-8.25c3.004.052 17.174-1.831 17.462-.22.712 3.984-12.238 5.928-13.242 9.762l-8.671-1.292Z"/>
  <path fill="#E98862" d="M354.739 136.002s6.471-3.188 8.114-2.825c1.456.322-1.398 3.478-1.398 3.478l-6.716-.653Zm-238.39 197.5-1.043 16.985 11.58 1.121 1.043-16.985-11.58-1.121Zm57.589-.649-11.454 2.419 2.276 16.985 11.454-2.419-2.276-16.985Z"/>
  <path fill="#262626" d="m179.858 336.57-25.502-123.179c-.57-2.754-1.852-5.191-3.644-6.931-1.792-1.74-3.994-2.684-6.259-2.684H88.567v.045h-31.31v12.047c0 7.014 2.22 13.741 6.17 18.701 3.95 4.961 9.309 7.747 14.896 7.747h15.27v.076h26.659l-7.341 97.994 20.375 2.406 7.098-94.758 19.668 94.997 19.806-6.461Z"/>
  <path fill="#E98862" d="M137.277 144.947s.083-8.34 4.831-7.906c2.996.273 17.23-.556 17.441 1.072.525 4.027-12.495 5.012-13.676 8.766l-8.596-1.932Z"/>
  <path fill="#E98862" d="M140.425 137.308s6.609-2.704 8.234-2.222c1.438.429-1.56 3.368-1.56 3.368l-6.674-1.146Z"/>
  <path fill="#367CFF" d="M117.034 187.134c-1.073-.001-2.126-.36-3.051-1.042-.926-.682-1.689-1.661-2.213-2.836l-19.976-44.892 10.528-7.384 15.838 35.595 18.881-26.671 10.163 7.175-25.663 37.514c-.566.8-1.26 1.439-2.037 1.877a5 5 0 0 1-2.47.664Z"/>
  <path fill="#E98862" d="M123.36 177.473c1.648 0 7.159-1.093 7.553.665.235 1.053-3.872 2.298-3.872 2.298"/>
  <path fill="#E98862" d="M122.495 185.77s11.125 5.738 17.516-.807c.163-.167.281-.392.341-.645a1.642 1.642 0 0 0-.008-.773 1.351 1.351 0 0 0-.354-.633.928.928 0 0 0-.577-.273c-4.31-.318-13.163-1.409-12.126-4.976h-6.949"/>
  <path fill="#367CFF" d="M123.625 173.434h-21.198c-.007-.869-.01-1.756 0-2.686.177-19.256 8.241-45.478-10.105-46.471a76.753 76.753 0 0 0-1.626-.049c-.144 3.82-18.987 3.806-19.385-.09-5.321.007-9.69 2.063-12.213 5.229-8.71 10.937 1.98 29.576 1.98 44.159 0 14.583-5.254 21.124-4.867 28.61.608 11.764 46.144 8.986 48.462 2.299 1.554-4.481.048-7.847-1.137-15.859h20.09l-.001-15.142Z"/>
  <path fill="#E98862" d="M90.695 124.228c-.144 3.82-1.803 9.438-6.903 9.854-6.808.57-12.085-6.048-12.483-9.944h.022c6.692 0 15.453.014 19.364.09Zm187.48 209.27-11.581 1.121 1.044 16.985 11.58-1.121-1.043-16.985Zm-41.001-.648-2.276 16.985 11.454 2.419 2.276-16.985-11.454-2.419Z"/>
  <path fill="#262626" d="M305.955 203.821v-.045h-55.886c-2.553-.001-5.015 1.198-6.9 3.36-1.886 2.162-3.059 5.132-3.29 8.325l-8.908 123.179 20.379 2.323 4.789-66.214 5.097 68.041 20.374-2.406-7.34-97.992h26.659v-.076h15.273c5.587 0 10.945-2.786 14.895-7.747 3.951-4.96 6.17-11.687 6.17-18.701v-12.047h-31.312Z"/>
  <path fill="#E98862" d="M252.154 157.239s-1.765-8.041-6.27-6.111c-2.843 1.218-16.779 4.947-16.655 6.59.307 4.064 13.099.87 15 4.124l7.925-4.603Z"/>
  <path fill="#E98862" d="M247.563 150.853s-6.939-.512-8.412.473c-1.304.873 2.188 2.762 2.188 2.762l6.224-3.235Z"/>
  <path fill="#367CFF" d="m350.92 140.441-3.091 19.062-9.79-25.231-.05.031c-.566-1.855-1.44-3.538-2.565-4.936-2.522-3.166-6.891-5.222-12.212-5.229-.398 3.896-19.242 3.91-19.386.09-.719.014-1.277.035-1.626.049-6.201.336-9.383 3.557-10.873 8.415l-18.746 37.563-22.831-19.936-6.886 12.43 28.025 24.471c.67.585 1.428.993 2.227 1.2.8.207 1.624.207 2.424.002a5.473 5.473 0 0 0 2.229-1.196 7.15 7.15 0 0 0 1.673-2.202l12.078-24.203c.303 3.403.547 6.758.575 9.926.211 22.548-4.635 26.798-2.245 33.687 2.317 6.687 47.853 9.465 48.462-2.299.387-7.486-4.868-14.02-4.868-28.61 0-3.85.748-7.986 1.684-12.182l9.643 24.852c.551 1.423 1.444 2.593 2.552 3.346 1.109.753 2.378 1.051 3.628.852 1.25-.2 2.42-.886 3.343-1.963.924-1.077 1.555-2.49 1.806-4.041l6.637-40.929-11.817-3.019Z"/>
  <path fill="#E98862" d="M303.827 124.228c.144 3.82 1.803 9.438 6.902 9.854 6.809.57 12.085-6.048 12.484-9.944h-.022c-6.693 0-15.452.014-19.364.09Z"/>
  <path fill="#DEE8F5" d="M24.672 195.307h-5.194v158.994h5.194V195.307Zm335.919 0h-5.194v158.994h5.194V195.307Z"/>
  <path fill="#DEE8F5" d="M380.71 188.74H0v8.967h380.71v-8.967Z"/>
  <path fill="#C1D8ED" d="M426.569 331.477h-8.278v21.521h8.278v-21.521Zm51.967 0h-8.279v21.521h8.279v-21.521Z"/>
  <path fill="#C1D8ED" d="M486.124 240.304h-75.421v105.754h75.421V240.304Z"/>
  <path fill="#DEE8F5" d="M466.093 240.304h-75.42v105.754h75.42V240.304Z"/>
  <path fill="#DEE8F5" d="M406.539 331.477h-8.278v21.521h8.278v-21.521Zm51.966 0h-8.278v21.521h8.278v-21.521Z"/>
  <path fill="#F3F5FD" d="M462.036 246.842H394.73v26.823h67.306v-26.823Zm0 33.388H394.73v26.822h67.306V280.23Zm0 33.386H394.73v26.822h67.306v-26.822Z" opacity=".53"/>
  <path fill="#fff" d="M428.383 264.006c1.651 0 2.989-1.68 2.989-3.753 0-2.073-1.338-3.753-2.989-3.753-1.651 0-2.99 1.68-2.99 3.753 0 2.073 1.339 3.753 2.99 3.753Zm0 33.388c1.651 0 2.989-1.681 2.989-3.754s-1.338-3.753-2.989-3.753c-1.651 0-2.99 1.68-2.99 3.753 0 2.073 1.339 3.754 2.99 3.754Zm0 33.387c1.651 0 2.989-1.68 2.989-3.753 0-2.073-1.338-3.754-2.989-3.754-1.651 0-2.99 1.681-2.99 3.754s1.339 3.753 2.99 3.753Z"/>
  <path fill="#8DDBE0" d="M474.197 216.715a2.575 2.575 0 0 1-.527.782 1.988 1.988 0 0 1-.726.468c-.264.095-.54.124-.813.084a1.809 1.809 0 0 1-.777-.313 1.758 1.758 0 0 0-1.079-.1c-.361.082-.7.276-.985.565-1.177 1.366-1.731 2.438-1.853 3.611H456.43a23.322 23.322 0 0 0-.255-2.481c-.296-2.235-1.136-4.301-2.404-5.914-.302-.413-.706-.685-1.146-.772a1.706 1.706 0 0 1-1.597.126c-.525-.225-.957-.703-1.201-1.328a3.24 3.24 0 0 1-.1-2.005c.179-.659.56-1.201 1.058-1.508 1.77-1.105 4.006-.482 5.822 1.627a13.075 13.075 0 0 1 1.507 2.174 28.132 28.132 0 0 0-.779-3.942c-.42-1.619-1.191-3.059-2.228-4.158-.435-.425-.719-1.048-.791-1.734-.071-.687.076-1.381.409-1.932.334-.551.827-.914 1.373-1.011.546-.098 1.1.08 1.543.493 1.688 1.703 2.949 3.982 3.632 6.562.075.26.147.526.211.794 1.302-4.073 2.636-7.519 5.325-9.504.479-.354 1.05-.454 1.587-.279.266.087.516.238.735.446.22.208.404.468.544.766a3.256 3.256 0 0 1 .222 1.992 2.95 2.95 0 0 1-.356.923 2.338 2.338 0 0 1-.609.682c-1.643 1.213-2.626 3.949-3.734 7.464 1.221-1.773 2.685-3.258 4.322-4.386.241-.165.506-.268.779-.305.273-.037.55-.006.813.092.264.097.509.259.723.475.214.217.392.484.523.787a3.237 3.237 0 0 1 .17 1.999 2.874 2.874 0 0 1-.379.907 2.277 2.277 0 0 1-.626.657c-1.275.88-2.405 2.054-3.332 3.461a5.014 5.014 0 0 1 2.612-.656 5.095 5.095 0 0 1 2.584.814c.241.169.452.394.623.665.171.271.297.581.372.913a3.25 3.25 0 0 1-.185 1.999Z"/>
  <path fill="#DEE8F5" d="M471.764 221.809h-19.451v7.101h19.451v-7.101Z"/>
  <path fill="#262626" d="M471.762 228.91v7.784c0 .968-.306 1.896-.852 2.581-.545.685-1.284 1.069-2.055 1.07h-13.638c-.771-.001-1.51-.385-2.055-1.07-.546-.685-.852-1.613-.852-2.581v-7.784h19.452Z"/>
  <path fill="#C1D8ED" d="M442.893 218.741h-37.617v10.695h37.617v-10.695Z"/>
  <path fill="#DEE8F5" d="M430.057 218.741h-39.78v10.695h39.78v-10.695Z"/>
  <path fill="#F3F5FD" d="M420.598 221.15h-27.76v5.877h27.76v-5.877Z"/>
  <path fill="#C1D8ED" d="M426.809 218.741h-3.653v10.695h3.653v-10.695Z" opacity=".62"/>
  <path fill="#C1D8ED" d="M407.698 240.118h37.617v-10.695h-37.617v10.695Z"/>
  <path fill="#F3F5FD" d="M392.699 240.118h39.78v-10.695h-39.78v10.695Z"/>
  <path fill="#DEE8F5" d="M395.945 240.118h1.931v-10.695h-1.931v10.695Zm3.862 0h1.931v-10.695h-1.931v10.695Zm28.111-1.898c1.517 0 2.746-1.544 2.746-3.449 0-1.904-1.229-3.448-2.746-3.448s-2.747 1.544-2.747 3.448c0 1.905 1.23 3.449 2.747 3.449Zm-5.644-6.07h-17.56v5.243h17.56v-5.243Z"/>
  <path fill="#C1D8ED" d="M172.442 177.758c-.001-2.15-.682-4.211-1.894-5.731-1.211-1.519-2.853-2.372-4.566-2.371v-3.299h-14.638v23.492h14.638v-3.982a5.33 5.33 0 0 0 2.472-.617c.784-.407 1.496-1.005 2.096-1.758a8.47 8.47 0 0 0 1.4-2.631 9.923 9.923 0 0 0 .492-3.103Zm-6.46 4.761v-9.513a3.11 3.11 0 0 1 1.479.328c.47.232.899.58 1.26 1.023.362.444.649.973.845 1.558.197.585.298 1.213.298 1.847 0 .635-.101 1.263-.298 1.848a4.935 4.935 0 0 1-.845 1.557c-.361.444-.79.792-1.26 1.024a3.11 3.11 0 0 1-1.479.328Z"/>
  <path fill="#0CBC8B" d="M222.07 185.867v3.982h14.639v-23.492H222.07v3.299a5.321 5.321 0 0 0-2.489.595 6.555 6.555 0 0 0-2.115 1.752 8.47 8.47 0 0 0-1.415 2.639 9.935 9.935 0 0 0-.497 3.119 9.94 9.94 0 0 0 .497 3.12 8.47 8.47 0 0 0 1.415 2.639 6.568 6.568 0 0 0 2.115 1.752c.79.403 1.636.605 2.489.595Zm-3.793-8.109c.001-1.262.401-2.472 1.112-3.364.711-.891 1.676-1.392 2.681-1.391v9.513a3.124 3.124 0 0 1-1.451-.361 3.864 3.864 0 0 1-1.231-1.032 4.987 4.987 0 0 1-.822-1.544 5.813 5.813 0 0 1-.289-1.821Z"/>
</svg>
