<svg xmlns="http://www.w3.org/2000/svg" width="548" height="359" fill="none" viewBox="0 0 548 359">
  <g clip-path="url(#a)">
    <path fill="#0F1011" d="M135.768 78.149c-.184 2.245 2.157 4.335 2.542 6.45.399 2.19-1.031 4.97-.098 6.934.946 1.993 4.015 2.639 5.434 4.309 1.419 1.67 1.564 4.802 3.377 6.057 1.788 1.238 4.763.274 6.859 1.02 2.026.722 3.712 3.366 5.957 3.549 2.245.184 4.336-2.157 6.451-2.542 2.189-.399 4.97 1.032 6.934.098 1.992-.947 2.639-4.016 4.308-5.435 1.669-1.419 4.803-1.563 6.058-3.376 1.237-1.788.273-4.762 1.02-6.859.721-2.026 3.365-3.712 3.549-5.957.183-2.246-2.157-4.335-2.543-6.451-.399-2.19 1.032-4.97.099-6.934-.947-1.992-4.016-2.638-5.435-4.308-1.419-1.67-1.563-4.803-3.377-6.058-1.788-1.238-4.762-.273-6.859-1.02-2.026-.721-3.711-3.365-5.956-3.549-2.245-.183-4.336 2.156-6.451 2.542-2.19.399-4.971-1.032-6.934-.098-1.993.947-2.639 4.016-4.309 5.435-1.67 1.419-4.803 1.562-6.058 3.376-1.237 1.788-.273 4.763-1.02 6.859-.721 2.026-3.366 3.712-3.548 5.958Z"/>
    <path fill="#E98862" d="M171.878 104.547s-4.733-2.504-3.689-15.39l-9.777-1.803s1.109 11.55-3.834 15.222l17.3 1.971Z"/>
    <path fill="#000" d="m156.577 100.159 8.116-6.22-6.379-.06a17.596 17.596 0 0 1-1.737 6.28Z" opacity=".15"/>
    <path fill="#E98862" d="M173.729 84.157c-.673 3.91-2.803 7.613-6.25 8.879a24.782 24.782 0 0 1-11.843 1.61c-10.703-.868-8.608-25.203-3.531-29.934 5.077-4.73 19.99-1.751 21.811 6.153.942 4.09.454 9.57-.187 13.292Z"/>
    <path fill="#0F1011" d="M158.417 81.16a.887.887 0 1 0 0-1.774.887.887 0 0 0 0 1.774Zm-6.995-.568a.886.886 0 1 0-.001-1.773.886.886 0 0 0 .001 1.773Zm-1.539-2.775a.417.417 0 0 1-.005-.833l2.348-.031h.006a.419.419 0 0 1 .289.704.414.414 0 0 1-.283.129l-2.349.031h-.006Zm10.446.847a.42.42 0 0 1-.098-.011l-2.315-.555a.418.418 0 0 1-.321-.505.418.418 0 0 1 .514-.305l2.316.555a.418.418 0 0 1 .317.453.418.418 0 0 1-.413.368Z"/>
    <path fill="#fff" d="M158.013 87.255s-3.273.348-5.568-.452c0 0 .02 2.156 2.611 2.366 2.59.21 2.957-1.914 2.957-1.914Z"/>
    <path fill="#0F1011" d="M166.519 74.038a76.716 76.716 0 0 0 2.978 27.171s7.461-12.865 8.614-23.576c1.082-10.04-6.322-15.962-11.32-17.075-19-4.231-20.367 9.648-20.367 9.648 3.461 7.197 22.151 7.166 22.151 7.166"/>
    <path fill="#E98862" d="M162.898 84.09a3.764 3.764 0 0 0 .865 2.764 3.754 3.754 0 0 0 5.328.433 3.76 3.76 0 0 0 1.299-2.59 3.69 3.69 0 0 0-.862-2.755 3.689 3.689 0 0 0-2.58-1.294c-2.679-.086-3.881 1.373-4.05 3.442Z"/>
    <path fill="#000" d="M154.485 85.194a.306.306 0 0 0 .09-.599l-1.804-.55 1.259-2.81a.3.3 0 0 0-.054-.338.31.31 0 0 0-.215-.097.305.305 0 0 0-.289.184l-1.401 3.127a.304.304 0 0 0 .19.417l2.135.654a.309.309 0 0 0 .089.012Z" opacity=".15"/>
    <path fill="#F3F5FD" d="M548.003 356.415H0c6.004-15.313 17.094-28.303 32.725-32.157 22.868-5.629 47.067 9.851 69.883 4.03 12.963-3.304 23.168-12.93 33.891-20.927 40.458-30.16 95.894-39.074 143.767-23.11 25.022 8.341 47.824 22.927 73.457 29.126 33.147 8.022 67.81 1.369 101.897.273 33.197-1.064 80.763 12.463 92.383 42.765Z"/>
    <path fill="#C1D8ED" d="M473.555 242.184c-3.916 11.864-17.433 22.407-13.394 31.132 1.535 3.317 3.077 6.786 3.787 10.329.461 2.113.537 4.291.227 6.431-1.457 9.239-10.103 15.376-18.143 20.155-.495.294-.997.594-1.499.894-7.618 4.564-15.597 9.82-18.044 18.246-1.359 4.681-.759 9.686-1.322 14.526a30.37 30.37 0 0 1-4.424 12.519H369.4c-4.559-5.023-4.179-13.467-.71-19.39 3.714-6.34 9.986-10.647 15.646-15.334 4.889-4.051 9.655-8.928 11.522-14.875.296-.941.515-1.905.654-2.882.453-3.219.208-19.66 5.789-29.78 8.627-15.628 22.621-11.779 26.898-20.596 1.64-3.378 3.054-44.882 30.313-37.215a20.268 20.268 0 0 1 14.043 25.84Z"/>
    <path fill="#8DDBE0" d="M523.417 307.079c-.783.539-1.624.986-2.509 1.334-7.355 2.759-27.81 2.453-30.802 9.716-1.407 3.415-1.744 7.184-2.949 10.678-2.735 7.924-9.956 13.865-18.032 16.098-2.907.802-5.917 1.175-8.793 2.069-5.556 1.731-10.157 5.213-14.202 9.441h-66.31a26.112 26.112 0 0 1 11.969-22.126c7.373-4.65 16.686-5.519 23.924-10.377 4.773-3.207 8.206-7.839 10.928-12.96a94.684 94.684 0 0 0 4.584-10.335c2.025-5.256 4.142-10.897 8.743-14.153a22.459 22.459 0 0 1 7.386-3.096c6.645-1.737 11.754-.716 16.594.276 5.874 1.199 11.357 2.343 18.718-1.567 13.057-6.939 32.148-41.541 51.226-8.664 7.649 13.186-2.906 28.599-10.475 33.666Z"/>
    <path fill="#C1D8ED" d="M107.565 242.184c3.916 11.864 17.432 22.407 13.394 31.132-1.536 3.317-3.078 6.786-3.788 10.329a18.036 18.036 0 0 0-.226 6.431c1.456 9.239 10.102 15.376 18.142 20.155.496.294.997.594 1.5.894 7.617 4.564 15.596 9.82 18.044 18.246 1.358 4.681.759 9.686 1.322 14.526a30.37 30.37 0 0 0 4.424 12.519h51.343c4.558-5.023 4.179-13.467.71-19.39-3.715-6.34-9.986-10.647-15.646-15.334-4.89-4.051-9.656-8.928-11.522-14.875a17.998 17.998 0 0 1-.655-2.882c-.453-3.219-.208-19.66-5.788-29.78-8.628-15.628-22.622-11.779-26.899-20.596-1.64-3.378-3.053-44.882-30.312-37.215a20.26 20.26 0 0 0-12.573 9.903 20.276 20.276 0 0 0-1.47 15.937Z"/>
    <path fill="#8DDBE0" d="M57.7 307.079a12.53 12.53 0 0 0 2.51 1.334c7.355 2.759 27.81 2.453 30.802 9.716 1.408 3.415 1.744 7.184 2.95 10.678 2.735 7.924 9.955 13.865 18.032 16.098 2.906.802 5.917 1.175 8.792 2.069 5.556 1.731 10.157 5.213 14.202 9.441h66.311a26.111 26.111 0 0 0-11.968-22.126c-7.373-4.65-16.687-5.519-23.925-10.377-4.772-3.207-8.204-7.839-10.927-12.96a94.401 94.401 0 0 1-4.583-10.335c-2.026-5.256-4.143-10.897-8.744-14.153a22.468 22.468 0 0 0-7.386-3.096c-6.645-1.737-11.754-.716-16.594.276-5.874 1.199-11.356 2.343-18.718-1.567-13.057-6.939-32.148-41.541-51.226-8.664-7.65 13.186 2.905 28.599 10.473 33.666Z"/>
    <path fill="#fff" d="M364.939 5.399H214.783c-11.499 0-20.82 9.321-20.82 20.82V332.6c0 11.499 9.321 20.82 20.82 20.82h150.156c11.498 0 20.819-9.321 20.819-20.82V26.219c0-11.499-9.321-20.82-20.819-20.82Z"/>
    <path fill="#DEE8F5" d="M364.938 358.82H214.783a26.248 26.248 0 0 1-26.219-26.219V26.219A26.25 26.25 0 0 1 214.783 0H364.94a26.25 26.25 0 0 1 26.218 26.219V332.6a26.25 26.25 0 0 1-26.22 26.219ZM214.783 10.797a15.44 15.44 0 0 0-15.419 15.42v306.382a15.438 15.438 0 0 0 15.419 15.42H364.94a15.438 15.438 0 0 0 15.419-15.42V26.219a15.437 15.437 0 0 0-15.419-15.42l-150.157-.002Z"/>
    <path fill="#DEE8F5" d="M256.983 5.399h65.755v12.757a9.548 9.548 0 0 1-9.55 9.55h-46.656a9.55 9.55 0 0 1-9.549-9.55V5.4Z"/>
    <path fill="#C1D8ED" d="M363.342 297.92H231.205l-14.825 12.446v-94.865h146.962v82.419Z"/>
    <path fill="#DEE8F5" d="m425.207 187.479-16.751-12.697H252.674V72.09h172.533v115.39Z"/>
    <path fill="#E98862" d="M124.766 120.663s-6.39-5.754-6.747-7.701c-.356-1.947 4.61-5.426 4.61-5.426s-1.271-1.451-2.503-3.09c-1.421-1.892-2.788-4.035-2.086-4.486.678-.435 2.349 1.175 4.014 3.121 2.141 2.503 4.267 5.563 4.267 5.563s-.827-3.384.472-3.522c.534-.056.918.49 1.602 2.889.777 2.736 2.41 6.881 2.41 6.881l-6.039 5.771Z"/>
    <path fill="#367CFF" d="M137.556 152.568a6.672 6.672 0 0 1-6.18-4.16l-11.993-29.534 12.36-5.018 3.631 8.942 2.85-14.244 13.083 2.617-7.211 36.04a6.674 6.674 0 0 1-5.915 5.333 8.658 8.658 0 0 1-.625.024Z"/>
    <path fill="#C1D8ED" d="m115.906 128.625 7.417-1.184a2.093 2.093 0 0 0 1.69-2.631l-4.667-16.751a2.096 2.096 0 0 0-2.35-1.509l-7.418 1.184a2.106 2.106 0 0 0-1.433.938 2.082 2.082 0 0 0-.256 1.693l4.667 16.75a2.093 2.093 0 0 0 2.35 1.51Z"/>
    <path fill="#E98862" d="M183.11 279.215c-11.122-2.809-12.217-3.227-12.576-3.365l4.594-12a3.035 3.035 0 0 0-.141-.051c.904.298 6.554 1.767 11.27 2.958l-3.147 12.458Z"/>
    <path fill="#C1D8ED" d="M182.61 295.999a2.502 2.502 0 0 1-1.353 1.484 2.514 2.514 0 0 1-2.009.019 2.51 2.51 0 0 1-1.529-2.229l.008-15.773a2.115 2.115 0 0 1 .744-1.604 11.694 11.694 0 0 0 4.206-5.99 10.43 10.43 0 0 0-.153-5.745.943.943 0 0 1 .204-.993.944.944 0 0 1 .985-.238l6.933 2.325a1.633 1.633 0 0 1 .947.826 1.635 1.635 0 0 1 .083 1.254l-9.066 26.664Z"/>
    <path fill="#E98862" d="M152.665 351.071s-.043-13.306-.043-14.485h12.85c0 1.175.042 14.441.042 14.441l-12.849.044Z"/>
    <path fill="#262626" d="M186.33 166.818c-8.244-8.244-46.55 2.876-46.55 2.876l-.035.24-.786-.442c-9.741 19.58-23.537 48.889-33.084 68.851a11.348 11.348 0 0 0-.711 9.007 11.347 11.347 0 0 0 6.095 6.669l41.7 18.553c-2.141 23.52-4.599 47.021-6.647 70.504l22.466 2.804c4.082-28.016 8.28-55.999 12.029-84.05l.612-1.376-.402-.179c2.298-17.281 4.422-34.589 6.236-51.949.35-3.529.657-7.368.809-11.101-.001.002 2.704-25.971-1.732-30.407Zm-54.191 71.713c8.039-13.4 17.496-29.192 25.685-42.595-.42 17.599-1.463 35.187-2.834 52.762l-22.851-10.167Z"/>
    <path fill="#E98862" d="m127.851 124.235-4.375 5.935s-11.757-2.357-12.86-11.414c-.128-1.041-.017-3.929 1.274-3.541 3.365 1.008 7.554 6.172 10.49 6.859-.67-1.201-1.487-2.895-.96-3.205 1.385-.815 5.117 4.103 6.431 5.366Z"/>
    <path fill="#367CFF" d="M186.985 105.595c-2.796-2.797-7.624-4.602-13.51-4.608-.441 3.432-21.282 3.444-21.44.079a61.47 61.47 0 0 0-1.799.044c-14.146.611-14.104 12.01-12.713 24.609l-11.638-5.133-5.385 12.207 18.524 8.17c.012.367.022.734.025 1.101.24 19.862-5.127 23.607-2.483 29.676 2.563 5.894 52.939 8.341 53.613-2.024.428-6.596-5.385-12.355-5.385-25.21s11.829-29.274 2.191-38.911Z"/>
    <path fill="#C1D8ED" d="M137.057 356.3a2.526 2.526 0 0 1-1.838-.811 2.515 2.515 0 0 1 .97-4.057l14.956-5.01a2.114 2.114 0 0 1 1.758.196 11.691 11.691 0 0 0 7.017 2.08 10.41 10.41 0 0 0 5.397-1.972.942.942 0 0 1 1.4.228.944.944 0 0 1 .146.507v7.315a1.639 1.639 0 0 1-1.645 1.639l-28.161-.115Z"/>
    <path fill="#E98862" d="M152.035 101.067c.158 3.365 1.988 8.315 7.636 8.688 7.526.496 13.363-5.335 13.804-8.768h-.019c-7.409 0-17.101.012-21.421.08Z"/>
    <path fill="#F3F5FD" d="M338.94 163.734c22.676 0 41.059-18.383 41.059-41.059 0-22.677-18.383-41.06-41.059-41.06s-41.059 18.383-41.059 41.06c0 22.676 18.383 41.059 41.059 41.059Z"/>
    <path fill="#0CBC8B" d="M354.831 115.401h-2.264v-5.056a13.627 13.627 0 0 0-27.253 0v5.056h-2.264a3.897 3.897 0 0 0-2.758 1.143 3.896 3.896 0 0 0-1.143 2.757v25.425a3.9 3.9 0 0 0 3.901 3.9h31.781a3.9 3.9 0 0 0 3.901-3.9v-25.422a3.899 3.899 0 0 0-1.142-2.76 3.913 3.913 0 0 0-2.759-1.143Zm-25.087-5.056a9.202 9.202 0 0 1 2.72-6.455 9.201 9.201 0 0 1 12.954 0 9.198 9.198 0 0 1 2.72 6.455v5.056h-18.394v-5.056Z"/>
    <path fill="#fff" d="M338.94 137.922a5.644 5.644 0 1 0 0-11.288 5.644 5.644 0 0 0 0 11.288Z"/>
    <path fill="#DEE8F5" d="M288.684 287.209c16.826 0 30.466-13.64 30.466-30.466 0-16.825-13.64-30.465-30.466-30.465s-30.465 13.64-30.465 30.465c0 16.826 13.639 30.466 30.465 30.466Z"/>
    <path fill="#0CBC8B" d="M300.475 251.348h-1.68v-3.752a10.111 10.111 0 0 0-20.222 0v3.752h-1.679a2.893 2.893 0 0 0-2.894 2.894v18.865a2.88 2.88 0 0 0 .847 2.046 2.886 2.886 0 0 0 2.047.848h23.581a2.894 2.894 0 0 0 2.894-2.894v-18.865a2.894 2.894 0 0 0-2.894-2.894Zm-18.615-3.752a6.823 6.823 0 0 1 6.824-6.824 6.825 6.825 0 0 1 6.824 6.824v3.752H281.86v-3.752Z"/>
    <path fill="#fff" d="M288.684 268.056a4.187 4.187 0 1 0 0-8.375 4.188 4.188 0 1 0 0 8.375Z"/>
  </g>
  <defs>
    <clipPath id="a">
      <rect width="548" height="358.82" fill="#fff" rx="179.41"/>
    </clipPath>
  </defs>
</svg>
