<svg xmlns="http://www.w3.org/2000/svg" width="45" height="45" fill="none" viewBox="0 0 45 45">
  <path fill="#6635FC" d="M22.5 30c.531 0 .977-.18 1.337-.54.359-.359.538-.804.538-1.335v-5.906l1.688 1.64c.375.344.812.523 1.312.538.5.017.938-.163 1.313-.538a1.75 1.75 0 0 0 .54-1.337 2.008 2.008 0 0 0-.54-1.334l-4.875-4.875a1.947 1.947 0 0 0-.61-.422 1.766 1.766 0 0 0-.703-.141c-.25.031-.484.086-.703.163a1.656 1.656 0 0 0-.61.4l-4.875 4.875c-.343.343-.515.773-.515 1.288 0 .516.187.962.562 1.337a1.99 1.99 0 0 0 1.313.54c.5.014.937-.166 1.312-.54l1.641-1.641v5.953c0 .531.18.976.54 1.335.359.36.804.54 1.335.54Zm-15 7.5c-1.031 0-1.914-.367-2.647-1.1-.736-.736-1.103-1.619-1.103-2.65v-22.5c0-1.031.367-1.914 1.103-2.648A3.602 3.602 0 0 1 7.5 7.5h30c1.031 0 1.914.367 2.65 1.102.733.734 1.1 1.617 1.1 2.648v22.5c0 1.031-.367 1.914-1.1 2.65-.736.733-1.619 1.1-2.65 1.1h-30Zm0-3.75v-22.5 22.5Zm0 0h30v-22.5h-30v22.5Z"/>
</svg>
