<svg xmlns="http://www.w3.org/2000/svg" width="42" height="42" fill="none" viewBox="0 0 42 42">
  <path fill="#fff" d="M27.821 26.348a7.032 7.032 0 0 1 3.339-.836h.004c.123 0 .18-.148.09-.23a15.245 15.245 0 0 0-4.253-2.699c-.017-.008-.033-.012-.05-.02a10.175 10.175 0 0 0 4.205-8.248c0-5.62-4.545-10.172-10.152-10.172-5.607 0-10.147 4.552-10.147 10.172 0 3.391 1.657 6.398 4.208 8.248-.016.008-.033.012-.05.02a15.282 15.282 0 0 0-4.892 3.306 15.315 15.315 0 0 0-3.298 4.901 15.324 15.324 0 0 0-1.206 5.665.328.328 0 0 0 .328.336h2.457a.33.33 0 0 0 .328-.32 12.238 12.238 0 0 1 3.593-8.38 12.176 12.176 0 0 1 8.683-3.605c2.326 0 4.557.644 6.48 1.85a.33.33 0 0 0 .333.012Zm-6.813-4.979a6.997 6.997 0 0 1-4.979-2.067 7.022 7.022 0 0 1-2.063-4.987c0-1.883.734-3.655 2.063-4.988a6.983 6.983 0 0 1 4.98-2.067 6.99 6.99 0 0 1 4.979 2.067 7.022 7.022 0 0 1 2.063 4.988 7.022 7.022 0 0 1-2.063 4.987 6.997 6.997 0 0 1-4.98 2.067Zm15.086 9.762h-3.446v-3.445a.33.33 0 0 0-.328-.329h-2.297a.33.33 0 0 0-.328.329v3.445H26.25a.329.329 0 0 0-.328.328v2.297c0 .18.148.328.328.328h3.445v3.445c0 .18.148.328.328.328h2.297c.18 0 .328-.147.328-.328v-3.445h3.446a.33.33 0 0 0 .328-.328v-2.297a.33.33 0 0 0-.328-.328Z"/>
</svg>
