<svg xmlns="http://www.w3.org/2000/svg" width="32" height="32" fill="none" viewBox="0 0 32 32">
  <path fill="#fff" fill-rule="evenodd" d="M21.922 24.73a3.98 3.98 0 0 0 1.044-2.206l6.22 2.764A1.999 1.999 0 0 0 32 23.462V8.538a2 2 0 0 0-2.812-1.826l-6.222 2.764A4 4 0 0 0 19 6H8.544l1.428 2H19a2 2 0 0 1 2 2v12a2 2 0 0 1-.288 1.036l1.21 1.694ZM2.856 8.36A1.998 1.998 0 0 0 2 10v12a2 2 0 0 0 2 2h10.028l1.428 2H4a4 4 0 0 1-4-4V10a3.99 3.99 0 0 1 1.694-3.268l1.16 1.628h.002ZM30 23.46l-7-3.11v-8.7l7-3.112v14.924-.002Zm-8.814 7.12-20-28 1.628-1.16 20 28-1.628 1.16Z" clip-rule="evenodd"/>
</svg>
