<svg xmlns="http://www.w3.org/2000/svg" width="39" height="39" fill="none" viewBox="0 0 39 39">
  <path fill="#6635FC" d="M17.875 34.127h3.25c0-9.858-8.02-17.877-17.875-17.877v3.25c8.063 0 14.625 6.562 14.625 14.627Z"/>
  <path fill="#6635FC" d="M11.375 34.127h3.25c0-6.273-5.102-11.377-11.375-11.377V26c4.48 0 8.125 3.645 8.125 8.127Z"/>
  <path fill="#6635FC" d="M5.688 34.125a2.437 2.437 0 1 0 0-4.875 2.437 2.437 0 0 0 0 4.875ZM32.5 6.5h-26a3.253 3.253 0 0 0-3.25 3.25v3.335c1.105.04 2.192.152 3.25.352V9.75h26v21.125h-8.562c.2 1.058.31 2.145.353 3.25H32.5a3.253 3.253 0 0 0 3.25-3.25V9.75A3.253 3.253 0 0 0 32.5 6.5Z"/>
</svg>
