<svg xmlns="http://www.w3.org/2000/svg" width="38" height="38" fill="none" viewBox="0 0 38 38">
  <g clip-path="url(#a)">
    <path fill="#fff" d="M8.806 18.418c0-2.638 1.16-4.163 3.133-4.163 1.617 0 2.703 1.116 2.817 2.629h2.724v-.259c-.123-2.817-2.432-4.75-5.562-4.75-3.81 0-5.98 2.494-5.98 6.534v1.774c0 4.037 2.149 6.483 5.98 6.483 3.12 0 5.427-1.88 5.562-4.605v-.27h-2.724c-.114 1.46-1.178 2.493-2.817 2.493-1.995 0-3.133-1.472-3.133-4.101v-1.765Zm14.583 0c0-2.638 1.159-4.163 3.13-4.163 1.62 0 2.705 1.116 2.82 2.629h2.724v-.259c-.126-2.817-2.433-4.75-5.563-4.75-3.81 0-5.98 2.494-5.98 6.534v1.774c0 4.037 2.15 6.483 5.98 6.483 3.121 0 5.427-1.88 5.563-4.605v-.27h-2.725c-.114 1.46-1.18 2.493-2.819 2.493-1.992 0-3.13-1.472-3.13-4.101v-1.765Z"/>
    <path fill="#fff" d="M33.25 7.125A2.375 2.375 0 0 1 35.625 9.5v19a2.375 2.375 0 0 1-2.375 2.375H4.75A2.375 2.375 0 0 1 2.375 28.5v-19A2.375 2.375 0 0 1 4.75 7.125h28.5ZM4.75 4.75A4.75 4.75 0 0 0 0 9.5v19a4.75 4.75 0 0 0 4.75 4.75h28.5A4.75 4.75 0 0 0 38 28.5v-19a4.75 4.75 0 0 0-4.75-4.75H4.75Z"/>
  </g>
  <defs>
    <clipPath id="a">
      <path fill="#fff" d="M0 0h38v38H0z"/>
    </clipPath>
  </defs>
</svg>
