<svg xmlns="http://www.w3.org/2000/svg" width="37" height="37" fill="none" viewBox="0 0 37 37">
  <path fill="#000" d="M14.8 3.7a3.7 3.7 0 0 0-3.7 3.7v18.5a3.7 3.7 0 0 0 3.7 3.7h11.1a3.7 3.7 0 0 0 3.7-3.7V7.4a3.7 3.7 0 0 0-3.7-3.7H14.8Zm-1.85 3.7a1.85 1.85 0 0 1 1.85-1.85h11.1a1.85 1.85 0 0 1 1.85 1.85v18.5a1.85 1.85 0 0 1-1.85 1.85H14.8a1.85 1.85 0 0 1-1.85-1.85V7.4ZM7.4 11.1a3.7 3.7 0 0 1 1.85-3.204v18.929a4.625 4.625 0 0 0 4.625 4.625h11.53A3.7 3.7 0 0 1 22.2 33.3h-8.325A6.475 6.475 0 0 1 7.4 26.825V11.1Z"/>
</svg>
