<svg xmlns="http://www.w3.org/2000/svg" width="43" height="43" fill="none" viewBox="0 0 43 43">
  <path fill="#000" d="M21.674 32.663a4.803 4.803 0 1 1 0 9.607 4.803 4.803 0 0 1 0-9.607Zm16.331 0a4.803 4.803 0 1 1 0 9.607 4.803 4.803 0 0 1 0-9.607Zm-32.663 0a4.803 4.803 0 1 1 0 9.607 4.803 4.803 0 0 1 0-9.607ZM21.674 16.33a4.803 4.803 0 1 1 0 9.607 4.803 4.803 0 0 1 0-9.607Zm16.331 0a4.803 4.803 0 1 1 0 9.607 4.803 4.803 0 0 1 0-9.607Zm-32.663 0a4.803 4.803 0 1 1 0 9.607 4.803 4.803 0 0 1 0-9.607ZM21.674 0a4.803 4.803 0 1 1 0 9.607 4.803 4.803 0 0 1 0-9.607Zm16.331 0a4.803 4.803 0 1 1 0 9.607 4.803 4.803 0 0 1 0-9.607ZM5.342 0a4.803 4.803 0 1 1 0 9.607 4.803 4.803 0 0 1 0-9.607Z"/>
</svg>
