<svg xmlns="http://www.w3.org/2000/svg" width="43" height="43" fill="none" viewBox="0 0 43 43">
  <path fill="#000" d="M35.93 0H6.34A6.34 6.34 0 0 0 0 6.34v21.135a6.34 6.34 0 0 0 6.34 6.34h24.496l7.82 7.841a2.111 2.111 0 0 0 1.5.613c.277.007.552-.05.803-.17a2.113 2.113 0 0 0 1.31-1.943V6.34A6.34 6.34 0 0 0 35.93 0Zm2.113 35.062-4.84-4.86a2.115 2.115 0 0 0-1.5-.614H6.34a2.113 2.113 0 0 1-2.113-2.113V6.34A2.113 2.113 0 0 1 6.34 4.227h29.59a2.113 2.113 0 0 1 2.113 2.113v28.722ZM21.135 21.135a2.113 2.113 0 1 0 0 4.226 2.113 2.113 0 0 0 0-4.227Zm0-12.681a2.114 2.114 0 0 0-2.114 2.113v6.34a2.113 2.113 0 1 0 4.227 0v-6.34a2.113 2.113 0 0 0-2.113-2.113Z"/>
</svg>
