<svg xmlns="http://www.w3.org/2000/svg" width="42" height="42" fill="none" viewBox="0 0 42 42">
  <path fill="#fff" d="M21 2.625C10.853 2.625 2.625 10.853 2.625 21S10.853 39.375 21 39.375 39.375 31.147 39.375 21 31.147 2.625 21 2.625Zm0 33.633c-8.425 0-15.258-6.833-15.258-15.258 0-8.425 6.833-15.258 15.258-15.258 8.425 0 15.258 6.833 15.258 15.258 0 8.425-6.833 15.258-15.258 15.258Z"/>
  <path fill="#000" fill-opacity=".15" d="M21 5.742C12.575 5.742 5.742 12.575 5.742 21c0 8.425 6.833 15.258 15.258 15.258 8.425 0 15.258-6.833 15.258-15.258 0-8.425-6.833-15.258-15.258-15.258Zm1.313 24.117a.33.33 0 0 1-.329.328h-1.968a.33.33 0 0 1-.328-.328V18.703a.33.33 0 0 1 .328-.328h1.968a.33.33 0 0 1 .328.328V29.86ZM21 15.75a1.97 1.97 0 0 1 0-3.938 1.97 1.97 0 0 1 0 3.938Z"/>
  <path fill="#fff" d="M19.031 13.781a1.97 1.97 0 1 0 3.939 0 1.97 1.97 0 0 0-3.939 0Zm2.953 4.594h-1.968a.33.33 0 0 0-.328.328V29.86c0 .18.147.328.328.328h1.968a.33.33 0 0 0 .328-.328V18.703a.33.33 0 0 0-.328-.328Z"/>
</svg>
