<svg xmlns="http://www.w3.org/2000/svg" width="40" height="40" fill="none" viewBox="0 0 40 40">
  <path fill="#fff" d="M32.575 0a3.75 3.75 0 0 1 3.75 3.75v15.842a3.75 3.75 0 0 1-3.75 3.75H6.75A3.75 3.75 0 0 1 3 19.592V3.75A3.75 3.75 0 0 1 6.75 0h25.825Zm-4.158 15.833h-17.5l-.17.012a1.25 1.25 0 0 0 0 2.477l.17.011h17.5l.17-.011a1.25 1.25 0 0 0 0-2.477l-.17-.012ZM27.167 10a1.666 1.666 0 1 0 0 3.333 1.666 1.666 0 0 0 0-3.333Zm-4.992 0a1.666 1.666 0 1 0 0 3.333 1.666 1.666 0 0 0 0-3.333Zm-5 0a1.666 1.666 0 1 0 0 3.333 1.666 1.666 0 0 0 0-3.333Zm-5 0a1.666 1.666 0 1 0 0 3.333 1.666 1.666 0 0 0 0-3.333ZM9.667 5a1.667 1.667 0 1 0 0 3.333 1.667 1.667 0 0 0 0-3.333Zm4.991 0a1.667 1.667 0 1 0 0 3.333 1.667 1.667 0 0 0 0-3.333Zm5 0a1.667 1.667 0 1 0 0 3.333 1.667 1.667 0 0 0 0-3.333Zm5 0a1.667 1.667 0 1 0 0 3.333 1.667 1.667 0 0 0 0-3.333Zm5 0a1.667 1.667 0 1 0 0 3.333 1.667 1.667 0 0 0 0-3.333Z"/>
</svg>
