<svg xmlns="http://www.w3.org/2000/svg" width="44" height="44" fill="none" viewBox="0 0 44 44">
  <path fill="#fff" d="M29.334 22V11c0-4.064-3.273-7.372-7.295-7.372a1.71 1.71 0 0 0-.383.046A7.344 7.344 0 0 0 14.667 11v11A7.34 7.34 0 0 0 22 29.333 7.34 7.34 0 0 0 29.334 22Zm-11 0V11A3.67 3.67 0 0 1 22 7.333c.1 0 .2-.009.3-.027 1.878.137 3.367 1.742 3.367 3.694v11A3.67 3.67 0 0 1 22 25.667 3.67 3.67 0 0 1 18.334 22Z"/>
  <path fill="#fff" d="M11 22H7.333c0 7.465 5.612 13.633 12.833 14.54v3.793h3.667V36.54c7.222-.907 12.833-7.073 12.833-14.54H33c0 6.067-4.934 11-11 11-6.067 0-11-4.933-11-11Z"/>
</svg>
