<svg xmlns="http://www.w3.org/2000/svg" width="554" height="554" fill="none" viewBox="0 0 554 554">
  <circle cx="277" cy="277" r="277" fill="#D9D9D9"/>
  <g clip-path="url(#a)">
    <g clip-path="url(#b)">
      <path fill="#D9D9D9" d="M28.683 99.982h493.355v354.83H28.683z"/>
      <path fill="#DEE8F5" d="m399.728 109.022-6.938 5.03 13.595 29.564 6.938-5.029-13.595-29.565Z"/>
      <path fill="#DEE8F5" d="M394.541 109.25h-8.012v34.138h8.012V109.25Zm46.661-9.268h-8.011v43.405h8.011V99.982Z"/>
      <path fill="#C1D8ED" d="M432.962 109.25h-8.011v34.138h8.011V109.25Zm16.252-4.387h-8.011v38.524h8.011v-38.524Z"/>
      <path fill="#DEE8F5" d="M424.825 103.661H412.03v39.726h12.795v-39.726Z"/>
      <path fill="#8DDBE0" d="M462.052 132.045s-.039-16.981 6.754-20.527c6.792-3.546-3.377 20.527-3.377 20.527h-3.377Z"/>
      <path fill="#8DDBE0" d="M465.429 132.045s3.547-31.785-3.701-31.785.324 31.787.324 31.787"/>
      <path fill="#8DDBE0" d="M463.256 133.444s-3.401-28.332-9.469-26.057c-6.067 2.275 7.081 26.951 7.081 26.951l2.388-.894Z"/>
      <path fill="#DEE8F5" d="M469.943 123.524h-15.82v19.863h15.82v-19.863Z"/>
      <path fill="#C1D8ED" d="M476.389 143.387h-93.865v4.414h93.865v-4.414Z"/>
      <path fill="#DEE8F5" d="M455.544 143.387h-73.02v4.414h73.02v-4.414Z"/>
      <path fill="#F3F5FD" d="M522.04 454.812H28.684c5.405-17.309 15.389-31.992 29.461-36.348 20.588-6.363 42.374 11.135 62.915 4.555 11.67-3.734 20.857-14.616 30.511-23.651 36.422-34.097 86.332-44.171 129.434-26.126 22.527 9.427 43.055 25.915 66.132 32.925 29.841 9.068 61.048 1.548 91.735.309 29.886-1.207 72.709 14.085 83.168 48.336Z"/>
      <path fill="#C1D8ED" d="M95.64 346.296 73.127 453.75l3.21 1.06 22.51-107.454-3.209-1.06Zm39.892.207-3.279.646 13.419 107.455 3.279-.646-13.419-107.455Z"/>
      <path fill="#C1D8ED" d="M92.626 243.75s-27.415-2.173-27.415 27.898c0 30.072 4.038 72.1 24.24 76.81 20.203 4.71 50.045 3.289 56.973 1.815 8.513-1.811 12.224-26.604.885-28.263-32.177-4.711-16.592-74.999-54.683-78.26Zm263.626 102.545-3.21 1.06 22.509 107.455 3.209-1.06-22.508-107.455Zm-39.894.207-13.422 107.454 3.279.646 13.422-107.455-3.279-.645Z"/>
      <path fill="#C1D8ED" d="M359.266 243.75s27.414-2.173 27.414 27.898c0 30.072-4.038 72.1-24.24 76.81-20.202 4.71-50.045 3.289-56.973 1.815-8.513-1.811-12.223-26.604-.885-28.263 32.173-4.711 16.59-74.999 54.684-78.26Z"/>
      <path fill="#0F1011" d="M132.022 198.714c.166 2.549 2.064 5.171 1.714 7.569-.36 2.485-2.891 4.093-3.735 6.32-.856 2.26-.255 5.734-1.538 7.629-1.284 1.894-4.11 1.71-5.752 3.135-1.617 1.404-2.472 4.8-4.367 5.646-1.831.819-4.199-1.111-6.228-.902-2.029.208-4.118 2.591-6.029 2.152-1.979-.452-3.259-3.631-5.033-4.69-1.8-1.074-4.567-.32-6.076-1.931-1.51-1.611-1.363-5.16-2.497-7.222-1.118-2.029-3.823-3.103-4.498-5.486-.652-2.299.885-5.271.72-7.82-.167-2.548-2.065-5.171-1.716-7.569.361-2.485 2.892-4.092 3.736-6.319.856-2.261.255-5.735 1.538-7.63 1.283-1.895 4.11-1.71 5.75-3.135 1.616-1.405 2.471-4.8 4.366-5.647 1.832-.819 4.199 1.111 6.229.903 2.029-.208 4.118-2.592 6.028-2.153 1.979.453 3.26 3.631 5.033 4.69 1.801 1.075 4.568.321 6.077 1.931 1.51 1.61 1.362 5.161 2.497 7.222 1.118 2.029 3.823 3.103 4.498 5.482.657 2.305-.882 5.277-.717 7.825Z"/>
      <path fill="#E98862" d="M101.403 228.468s4.279-2.841 3.335-17.465l8.838-2.047s-1.003 13.108 3.465 17.275l-15.638 2.237Z"/>
      <path fill="#000" d="m115.232 223.489-7.336-7.059 5.766-.07a24.04 24.04 0 0 0 1.57 7.129Z" opacity=".15"/>
      <path fill="#E98862" d="M99.728 205.326c.608 4.438 2.534 8.641 5.649 10.077 3.397 1.697 7.072 2.325 10.706 1.829 9.674-.985 7.78-28.604 3.191-33.972-4.589-5.369-18.07-1.988-19.715 6.982-.852 4.64-.412 10.862.169 15.084Z"/>
      <path fill="#0F1011" d="M113.568 201.926c.443 0 .802-.451.802-1.006 0-.556-.359-1.007-.802-1.007-.442 0-.801.451-.801 1.007 0 .555.359 1.006.801 1.006Zm6.324-.644c.443 0 .801-.45.801-1.006s-.358-1.006-.801-1.006c-.443 0-.801.45-.801 1.006s.358 1.006.801 1.006Zm1.39-3.149h-.005l-2.123-.035a.344.344 0 0 1-.265-.141.534.534 0 0 1-.109-.335.542.542 0 0 1 .112-.334.34.34 0 0 1 .267-.136h.006l2.122.036c.098.005.19.058.257.147a.539.539 0 0 1 .103.328.54.54 0 0 1-.107.328.348.348 0 0 1-.258.142Zm-9.441.962a.34.34 0 0 1-.252-.119.569.569 0 0 1-.058-.626.388.388 0 0 1 .222-.189l2.094-.629a.29.29 0 0 1 .149-.012c.05.008.098.029.141.061a.502.502 0 0 1 .174.297.567.567 0 0 1-.048.363.444.444 0 0 1-.103.136.35.35 0 0 1-.138.074l-2.093.631a.382.382 0 0 1-.088.013Z"/>
      <path fill="#fff" d="M113.934 208.844s2.958.396 5.033-.512c0 0-.019 2.446-2.36 2.685-2.341.238-2.673-2.173-2.673-2.173Z"/>
      <path fill="#0F1011" d="M106.245 193.841c.58 10.398-.332 20.843-2.692 30.837 0 0-6.744-14.6-7.786-26.757-.978-11.395 5.714-18.115 10.232-19.379 17.174-4.801 18.41 10.95 18.41 10.95-3.128 8.168-20.022 8.133-20.022 8.133"/>
      <path fill="#E98862" d="M109.519 205.252c.062 1.12-.23 2.225-.813 3.077-.584.851-1.411 1.38-2.302 1.471-.892.09-1.776-.264-2.46-.986-.685-.723-1.115-1.755-1.198-2.873a5.21 5.21 0 0 1 .137-1.663 4.587 4.587 0 0 1 .643-1.464c.29-.429.646-.78 1.047-1.032a2.82 2.82 0 0 1 1.285-.437c2.421-.097 3.509 1.559 3.661 3.907Z"/>
      <path fill="#000" d="M117.123 206.507a.246.246 0 0 1-.182-.083.415.415 0 0 1-.054-.45.296.296 0 0 1 .154-.147l1.631-.625-1.138-3.189a.42.42 0 0 1-.011-.27.36.36 0 0 1 .057-.118.284.284 0 0 1 .09-.08.228.228 0 0 1 .107-.031.228.228 0 0 1 .108.025.266.266 0 0 1 .092.076.358.358 0 0 1 .062.114l1.266 3.548a.43.43 0 0 1-.001.286.37.37 0 0 1-.069.117.281.281 0 0 1-.102.071l-1.93.742a.221.221 0 0 1-.08.014Z" opacity=".15"/>
      <path fill="#E98862" d="M350.397 228.75s-4.377-2.916-3.4-17.882l-9.045-2.105s1.016 13.419-3.559 17.679l16.004 2.308Z"/>
      <path fill="#000" d="m336.246 223.636 7.514-7.217-5.899-.076a24.562 24.562 0 0 1-1.615 7.293Z" opacity=".15"/>
      <path fill="#E98862" d="M352.131 205.065c-.626 4.541-2.6 8.84-5.791 10.308-3.477 1.733-7.239 2.371-10.958 1.859-9.901-1.02-7.944-29.288-3.243-34.778 4.702-5.491 18.498-2.014 20.177 7.17.866 4.749.409 11.119-.185 15.441Z"/>
      <path fill="#0F1011" d="M346.467 214.83c.188.755.319 1.084.861.68 2.126-1.587 6.346-5.039 7.976-17.971 1.461-11.588-4.232-16.367-8.773-18.073-3.913-1.47-13.048-1.772-17.335 1.472-3.694 2.795 0 9.298 0 9.298 1.633.094 1.962 1.856 5.814 1.856 2.978 0 1.936-.139 4.725-.11 4.961.05 3.358 4.631 3.268 5.881-.258 3.575 1.881 5.47 2.201 8.459a71.177 71.177 0 0 0 1.263 8.508Z"/>
      <path fill="#E98862" d="M342.23 203.057a5.433 5.433 0 0 0 .142 1.708c.137.552.359 1.064.655 1.508.296.443.658.808 1.067 1.073.409.266.856.427 1.315.474a2.8 2.8 0 0 0 1.358-.199 3.367 3.367 0 0 0 1.193-.841c.349-.377.635-.837.841-1.353.207-.517.33-1.08.361-1.657a5.31 5.31 0 0 0-.138-1.702 4.707 4.707 0 0 0-.657-1.499 3.666 3.666 0 0 0-1.071-1.058 2.898 2.898 0 0 0-1.316-.449c-2.477-.101-3.591 1.592-3.75 3.995Z"/>
      <path fill="#0F1011" d="m343.76 189.206 2.561 1.181s-.908 16.062-1.625 20.453c-.717 4.391-2.721 7.251-4.994 7.495-3.489.375-6.017.406-8.576-.743-2.887-1.295-2.483-11.021-2.483-11.021s9.288 1.263 11.858-.287c2.57-1.55 3.259-17.078 3.259-17.078Z"/>
      <path fill="#0F1011" d="M337.965 201.566c.453 0 .82-.461.82-1.03 0-.568-.367-1.029-.82-1.029-.453 0-.82.461-.82 1.029 0 .569.367 1.03.82 1.03Zm-6.472-.666c.453 0 .821-.461.821-1.03 0-.568-.368-1.029-.821-1.029-.453 0-.82.461-.82 1.029 0 .569.367 1.03.82 1.03Zm-1.421-3.225a.36.36 0 0 1-.249-.155.556.556 0 0 1-.102-.326.556.556 0 0 1 .098-.326.369.369 0 0 1 .248-.16l2.173-.035a.366.366 0 0 1 .269.144.56.56 0 0 1 .012.678.358.358 0 0 1-.271.146l-2.173.034h-.005Zm9.663.995a.306.306 0 0 1-.09-.013l-2.142-.648a.344.344 0 0 1-.151-.068.441.441 0 0 1-.115-.14.59.59 0 0 1 .012-.568.428.428 0 0 1 .122-.131.327.327 0 0 1 .153-.058.312.312 0 0 1 .159.024l2.143.648c.089.03.167.1.219.197a.582.582 0 0 1-.06.63.346.346 0 0 1-.25.127Z"/>
      <path fill="#000" d="M334.321 206.249a.219.219 0 0 1-.083-.016l-1.975-.763a.282.282 0 0 1-.104-.073.383.383 0 0 1-.071-.121.448.448 0 0 1 0-.293l1.299-3.63a.312.312 0 0 1 .158-.18.23.23 0 0 1 .213.009c.067.038.12.108.147.194a.438.438 0 0 1-.002.268l-1.167 3.264 1.668.643a.303.303 0 0 1 .155.151.426.426 0 0 1-.055.456.249.249 0 0 1-.183.087v.004Z" opacity=".15"/>
      <path fill="#fff" d="M337.585 208.648s-3.029.401-5.151-.53c0 0 .017 2.504 2.413 2.751 2.396.246 2.738-2.221 2.738-2.221Z"/>
      <path fill="#0F1011" d="M351.467 182.651s-2.675 4.236-12.603-4.245c-9.929-8.48-13.65-2.331-13.65 1.424s-1.632 12.202 8.649 12.202"/>
      <path fill="#E98862" d="M380.637 243.843s-.309-8.333 4.451-8.25c3.004.052 17.173-1.83 17.461-.22.713 3.984-12.238 5.928-13.242 9.762l-8.67-1.292Z"/>
      <path fill="#E98862" d="M383.422 235.985s6.472-3.189 8.115-2.826c1.456.322-1.398 3.478-1.398 3.478l-6.717-.652Zm-238.39 197.499-1.043 16.985 11.581 1.121 1.043-16.985-11.581-1.121Z"/>
      <path fill="#C1D8ED" d="M170.285 454.152c.312-.002.621-.084.906-.243.286-.158.543-.389.754-.677.212-.289.374-.629.476-.999.102-.371.142-.764.118-1.155a3.332 3.332 0 0 0-.45-1.495 2.412 2.412 0 0 0-1.02-.956l-13.519-5.685a1.553 1.553 0 0 0-.814-.107 1.675 1.675 0 0 0-.775.329c-1.858 1.619-4.082 2.447-6.343 2.361-1.761-.157-3.451-.932-4.878-2.237a.78.78 0 0 0-.438-.236.704.704 0 0 0-.471.096.945.945 0 0 0-.357.398 1.282 1.282 0 0 0-.132.575v8.3c0 .245.038.487.113.713.075.227.185.432.323.605.138.172.302.309.482.402.181.093.374.141.569.14l25.456-.129Z"/>
      <path fill="#E98862" d="m202.622 432.835-11.454 2.419 2.276 16.985 11.454-2.419-2.276-16.985Z"/>
      <path fill="#262626" d="m208.541 436.553-25.502-123.18c-.57-2.753-1.851-5.191-3.643-6.931-1.793-1.74-3.994-2.684-6.26-2.684H117.25v.045H85.94v12.047c0 7.014 2.22 13.742 6.17 18.702 3.951 4.96 9.309 7.746 14.896 7.746h15.27v.076h26.659l-7.34 97.994 20.374 2.406 7.098-94.758 19.668 94.998 19.806-6.461Z"/>
      <path fill="#E98862" d="M165.961 244.93s.082-8.34 4.831-7.907c2.995.273 17.229-.556 17.441 1.072.524 4.028-12.496 5.012-13.677 8.766l-8.595-1.931Z"/>
      <path fill="#E98862" d="M169.109 237.29s6.609-2.704 8.233-2.222c1.438.429-1.56 3.368-1.56 3.368l-6.673-1.146Z"/>
      <path fill="#367CFF" d="M145.717 287.117c-1.072-.001-2.126-.361-3.051-1.043-.925-.682-1.689-1.66-2.213-2.836l-19.975-44.892 10.527-7.384 15.838 35.595 18.882-26.671 10.163 7.175-25.663 37.515c-.566.799-1.26 1.438-2.037 1.876a5.016 5.016 0 0 1-2.471.665Z"/>
      <path fill="#E98862" d="M152.044 277.455c1.648 0 7.158-1.092 7.552.665.236 1.054-3.872 2.298-3.872 2.298"/>
      <path fill="#E98862" d="M151.179 285.752s11.124 5.739 17.515-.807c.163-.167.282-.391.341-.644a1.634 1.634 0 0 0-.008-.774 1.356 1.356 0 0 0-.354-.633.927.927 0 0 0-.576-.272c-4.31-.318-13.164-1.409-12.127-4.977h-6.949"/>
      <path fill="#367CFF" d="M152.308 273.416h-21.197c-.007-.868-.01-1.756 0-2.686.177-19.256 8.241-45.478-10.105-46.471a78.444 78.444 0 0 0-1.626-.048c-.144 3.819-18.988 3.805-19.386-.091-5.32.007-9.69 2.063-12.212 5.229-8.712 10.938 1.98 29.576 1.98 44.159 0 14.583-5.255 21.124-4.867 28.61.608 11.764 46.144 8.986 48.461 2.299 1.555-4.481.048-7.847-1.137-15.859h20.091l-.002-15.142Z"/>
      <path fill="#C1D8ED" d="M218.018 454.152c.313-.002.621-.084.907-.243.286-.158.543-.389.754-.677.212-.289.374-.629.476-.999.102-.371.142-.764.118-1.155a3.316 3.316 0 0 0-.451-1.495c-.26-.434-.614-.766-1.02-.956l-13.517-5.685a1.551 1.551 0 0 0-.814-.107 1.675 1.675 0 0 0-.775.329c-1.858 1.619-4.081 2.447-6.342 2.361-1.761-.157-3.452-.932-4.879-2.237a.78.78 0 0 0-.438-.236.698.698 0 0 0-.471.096.945.945 0 0 0-.357.398 1.295 1.295 0 0 0-.132.575v8.3c0 .245.039.487.114.713.075.227.184.432.322.605.139.172.303.309.483.402.18.093.374.141.569.14l25.453-.129Z"/>
      <path fill="#E98862" d="M119.378 224.211c-.144 3.819-1.803 9.437-6.902 9.854-6.809.569-12.085-6.049-12.484-9.945h.022c6.693 0 15.454.014 19.364.091ZM306.859 433.48l-11.581 1.121 1.043 16.985 11.581-1.121-1.043-16.985Z"/>
      <path fill="#C1D8ED" d="M281.604 454.152a1.885 1.885 0 0 1-.907-.243 2.368 2.368 0 0 1-.754-.677 3.086 3.086 0 0 1-.475-.999 3.497 3.497 0 0 1-.118-1.155c.033-.542.19-1.061.45-1.495.261-.434.615-.766 1.02-.956l13.519-5.685c.262-.109.539-.145.814-.107.274.038.538.151.774.329 1.859 1.619 4.082 2.447 6.343 2.361 1.761-.157 3.452-.932 4.879-2.237a.782.782 0 0 1 .439-.236.696.696 0 0 1 .47.096.948.948 0 0 1 .357.397c.087.173.132.373.132.576v8.3c0 .245-.039.487-.114.713a1.927 1.927 0 0 1-.322.605 1.508 1.508 0 0 1-.483.402c-.18.093-.374.141-.569.14l-25.455-.129Z"/>
      <path fill="#E98862" d="m265.857 432.832-2.275 16.985 11.454 2.419 2.275-16.985-11.454-2.419Z"/>
      <path fill="#262626" d="M334.639 303.803v-.045h-55.886c-2.554 0-5.015 1.198-6.901 3.36-1.885 2.163-3.059 5.132-3.29 8.325l-8.908 123.18 20.38 2.322 4.788-66.214 5.097 68.042 20.375-2.407-7.34-97.992h26.659v-.076h15.272c5.587 0 10.945-2.786 14.896-7.746 3.95-4.96 6.17-11.688 6.17-18.702v-12.047h-31.312Z"/>
      <path fill="#E98862" d="M280.837 257.221s-1.764-8.041-6.27-6.111c-2.843 1.219-16.779 4.947-16.655 6.59.307 4.064 13.1.87 15.001 4.124l7.924-4.603Z"/>
      <path fill="#E98862" d="M276.247 250.835s-6.939-.512-8.413.474c-1.304.872 2.189 2.761 2.189 2.761l6.224-3.235Z"/>
      <path fill="#C1D8ED" d="M250.463 454.152a1.885 1.885 0 0 1-.907-.243 2.378 2.378 0 0 1-.754-.677 3.086 3.086 0 0 1-.475-.999 3.551 3.551 0 0 1-.118-1.155c.034-.542.19-1.06.45-1.495a2.412 2.412 0 0 1 1.02-.956l13.519-5.685c.262-.109.54-.145.814-.107.274.038.538.151.775.329 1.858 1.619 4.082 2.447 6.343 2.361 1.76-.157 3.451-.932 4.878-2.237a.78.78 0 0 1 .438-.236.704.704 0 0 1 .471.096.945.945 0 0 1 .357.398c.087.172.132.372.132.575v8.3c0 .245-.038.487-.113.713a1.95 1.95 0 0 1-.323.605 1.508 1.508 0 0 1-.483.402 1.22 1.22 0 0 1-.568.14l-25.456-.129Z"/>
      <path fill="#367CFF" d="m379.604 240.423-3.091 19.062-9.79-25.231-.05.031c-.567-1.855-1.441-3.537-2.565-4.936-2.522-3.166-6.892-5.222-12.212-5.229-.399 3.896-19.242 3.91-19.386.091a78.22 78.22 0 0 0-1.626.048c-6.202.336-9.383 3.557-10.874 8.415l-18.745 37.563-22.832-19.936-6.886 12.43 28.026 24.471c.67.585 1.427.994 2.227 1.2a4.82 4.82 0 0 0 2.424.002 5.475 5.475 0 0 0 2.228-1.196 7.108 7.108 0 0 0 1.673-2.202l12.079-24.203c.303 3.403.546 6.759.575 9.927.21 22.548-4.635 26.797-2.246 33.686 2.318 6.687 47.854 9.465 48.462-2.298.387-7.486-4.867-14.021-4.867-28.611 0-3.85.747-7.986 1.683-12.182l9.643 24.852c.551 1.423 1.444 2.593 2.553 3.346 1.108.753 2.377 1.051 3.627.852 1.251-.199 2.42-.886 3.344-1.963.923-1.076 1.555-2.49 1.806-4.04l6.637-40.93-11.817-3.019Z"/>
      <path fill="#E98862" d="M332.51 224.211c.144 3.819 1.804 9.437 6.903 9.854 6.809.569 12.085-6.049 12.483-9.945h-.022c-6.692 0-15.451.014-19.364.091Z"/>
      <path fill="#DEE8F5" d="M53.356 295.289h-5.194v158.994h5.194V295.289Zm335.918 0h-5.194v158.994h5.194V295.289Z"/>
      <path fill="#DEE8F5" d="M409.393 288.722H28.683v8.967h380.71v-8.967Z"/>
      <path fill="#C1D8ED" d="M455.253 431.459h-8.278v21.521h8.278v-21.521Zm51.966 0h-8.278v21.521h8.278v-21.521Z"/>
      <path fill="#C1D8ED" d="M514.807 340.286h-75.42V446.04h75.42V340.286Z"/>
      <path fill="#DEE8F5" d="M494.777 340.286h-75.421V446.04h75.421V340.286Z"/>
      <path fill="#DEE8F5" d="M435.223 431.459h-8.278v21.521h8.278v-21.521Zm51.966 0h-8.278v21.521h8.278v-21.521Z"/>
      <path fill="#F3F5FD" d="M490.719 346.825h-67.305v26.822h67.305v-26.822Zm0 33.387h-67.305v26.822h67.305v-26.822Zm0 33.386h-67.305v26.823h67.305v-26.823Z" opacity=".53"/>
      <path fill="#fff" d="M457.066 363.989c1.651 0 2.99-1.681 2.99-3.754s-1.339-3.753-2.99-3.753c-1.651 0-2.989 1.68-2.989 3.753 0 2.073 1.338 3.754 2.989 3.754Zm0 33.387c1.651 0 2.99-1.68 2.99-3.753 0-2.073-1.339-3.754-2.99-3.754-1.651 0-2.989 1.681-2.989 3.754s1.338 3.753 2.989 3.753Zm0 33.387c1.651 0 2.99-1.68 2.99-3.753 0-2.073-1.339-3.753-2.99-3.753-1.651 0-2.989 1.68-2.989 3.753 0 2.073 1.338 3.753 2.989 3.753Z"/>
      <path fill="#8DDBE0" d="M502.881 316.697a2.583 2.583 0 0 1-.528.782 1.987 1.987 0 0 1-.725.469 1.688 1.688 0 0 1-.814.083 1.81 1.81 0 0 1-.776-.313 1.753 1.753 0 0 0-1.08-.099 2.004 2.004 0 0 0-.984.564c-1.177 1.367-1.732 2.438-1.854 3.611h-11.006a23.807 23.807 0 0 0-.255-2.48c-.297-2.236-1.137-4.302-2.405-5.915-.301-.413-.705-.685-1.146-.772a1.706 1.706 0 0 1-1.597.126c-.524-.225-.956-.703-1.2-1.328a3.247 3.247 0 0 1-.101-2.005c.18-.659.56-1.201 1.058-1.507 1.77-1.106 4.006-.482 5.823 1.627a12.962 12.962 0 0 1 1.506 2.173 28.09 28.09 0 0 0-.779-3.941c-.419-1.62-1.191-3.06-2.227-4.159-.436-.424-.72-1.048-.791-1.734-.072-.686.075-1.38.409-1.931.334-.552.827-.915 1.373-1.012.546-.097 1.1.08 1.542.493 1.688 1.704 2.949 3.982 3.632 6.562.075.26.147.526.211.794 1.303-4.073 2.636-7.519 5.326-9.504.478-.353 1.049-.454 1.586-.279.267.087.516.239.736.446.219.208.404.468.543.766.14.297.231.626.269.968.038.342.022.69-.047 1.024-.069.334-.19.648-.355.923a2.342 2.342 0 0 1-.61.682c-1.643 1.213-2.625 3.95-3.734 7.464 1.222-1.773 2.685-3.258 4.323-4.385.241-.165.505-.269.779-.306.273-.037.549-.005.813.092.263.097.509.259.722.476.214.216.392.483.524.786.131.303.214.635.243.978.029.343.004.69-.073 1.021a2.937 2.937 0 0 1-.379.908 2.29 2.29 0 0 1-.627.656c-1.274.88-2.404 2.054-3.331 3.461a5.022 5.022 0 0 1 2.612-.656 5.1 5.1 0 0 1 2.584.815c.24.168.452.394.622.664.171.271.298.581.373.913.075.332.097.68.066 1.023a3.154 3.154 0 0 1-.251.976Z"/>
      <path fill="#DEE8F5" d="M500.447 321.791h-19.451v7.101h19.451v-7.101Z"/>
      <path fill="#262626" d="M500.446 328.892v7.784c-.001.968-.307 1.897-.852 2.581-.545.685-1.285 1.069-2.056 1.07h-13.637c-.771-.001-1.511-.385-2.056-1.07-.545-.684-.852-1.613-.852-2.581v-7.784h19.453Z"/>
      <path fill="#C1D8ED" d="M471.576 318.723h-37.617v10.695h37.617v-10.695Z"/>
      <path fill="#DEE8F5" d="M458.74 318.723h-39.78v10.695h39.78v-10.695Z"/>
      <path fill="#F3F5FD" d="M449.281 321.132h-27.76v5.877h27.76v-5.877Z"/>
      <path fill="#C1D8ED" d="M455.493 318.723h-3.654v10.695h3.654v-10.695Z" opacity=".62"/>
      <path fill="#C1D8ED" d="M436.381 340.1h37.617v-10.694h-37.617V340.1Z"/>
      <path fill="#F3F5FD" d="M421.382 340.1h39.78v-10.694h-39.78V340.1Z"/>
      <path fill="#DEE8F5" d="M424.629 340.1h1.931v-10.694h-1.931V340.1Zm3.861 0h1.931v-10.694h-1.931V340.1Zm28.111-1.898c1.517 0 2.747-1.544 2.747-3.449 0-1.904-1.23-3.448-2.747-3.448s-2.746 1.544-2.746 3.448c0 1.905 1.229 3.449 2.746 3.449Zm-5.643-6.07h-17.561v5.243h17.561v-5.243Z"/>
      <path fill="#C1D8ED" d="M201.125 277.74c-.001-2.15-.682-4.211-1.893-5.731-1.211-1.519-2.854-2.372-4.566-2.371v-3.299h-14.639v23.492h14.639v-3.982c.848 0 1.688-.209 2.472-.617a6.563 6.563 0 0 0 2.096-1.758 8.512 8.512 0 0 0 1.4-2.631 9.893 9.893 0 0 0 .491-3.103Zm-6.459 4.761v-9.513a3.106 3.106 0 0 1 1.478.328c.47.233.899.58 1.261 1.024.361.443.649.972.845 1.557.196.585.297 1.213.297 1.848 0 .634-.101 1.262-.297 1.847a4.971 4.971 0 0 1-.845 1.558 3.831 3.831 0 0 1-1.261 1.023c-.47.232-.973.344-1.478.328Z"/>
      <path fill="#0CBC8B" d="M250.753 285.849v3.982h14.64v-23.492h-14.64v3.299a5.321 5.321 0 0 0-2.489.595 6.568 6.568 0 0 0-2.115 1.752 8.49 8.49 0 0 0-1.415 2.639 9.94 9.94 0 0 0-.497 3.12c0 1.07.169 2.131.497 3.119a8.49 8.49 0 0 0 1.415 2.639 6.555 6.555 0 0 0 2.115 1.752c.79.403 1.636.605 2.489.595Zm-3.792-8.109c.001-1.262.401-2.472 1.112-3.364.711-.891 1.675-1.392 2.68-1.391v9.514c-.498 0-.991-.123-1.451-.362a3.857 3.857 0 0 1-1.23-1.031 4.971 4.971 0 0 1-.822-1.545 5.813 5.813 0 0 1-.289-1.821Z"/>
    </g>
  </g>
  <defs>
    <clipPath id="a">
      <path fill="#fff" d="M28.683 169.982c0-38.66 31.34-70 70-70H452.04c38.66 0 70 31.34 70 70v214.83c0 38.66-31.341 70-70 70H98.683c-38.66 0-70-31.34-70-70v-214.83Z"/>
    </clipPath>
    <clipPath id="b">
      <path fill="#fff" d="M0 0h493.355v354.83H0z" transform="translate(28.683 99.982)"/>
    </clipPath>
  </defs>
</svg>
