<svg xmlns="http://www.w3.org/2000/svg" width="37" height="38" fill="none" viewBox="0 0 37 38">
  <path fill="#fff" d="M13.875 17.417a6.05 6.05 0 0 0 3.426-1.068 6.3 6.3 0 0 0 2.27-2.842 6.492 6.492 0 0 0 .352-3.66 6.389 6.389 0 0 0-1.688-3.242 6.119 6.119 0 0 0-3.157-1.733 6.016 6.016 0 0 0-3.563.36 6.205 6.205 0 0 0-2.768 2.333 6.456 6.456 0 0 0-1.039 3.518c0 1.68.65 3.29 1.806 4.479a6.086 6.086 0 0 0 4.36 1.855Zm12.333 3.166a4.54 4.54 0 0 0 2.57-.8 4.725 4.725 0 0 0 1.703-2.132 4.87 4.87 0 0 0 .263-2.744 4.79 4.79 0 0 0-1.266-2.432 4.589 4.589 0 0 0-2.368-1.3 4.512 4.512 0 0 0-2.672.27 4.653 4.653 0 0 0-2.075 1.75 4.83 4.83 0 0 0-.78 2.638c0 1.26.487 2.468 1.355 3.36a4.564 4.564 0 0 0 3.27 1.39Zm6.167 11.084c.409 0 .8-.167 1.09-.464.289-.297.451-.7.451-1.12a8.075 8.075 0 0 0-1.169-4.185 7.786 7.786 0 0 0-3.147-2.917 7.532 7.532 0 0 0-4.173-.767 7.595 7.595 0 0 0-3.936 1.615 10.706 10.706 0 0 0-5.523-3.02 10.528 10.528 0 0 0-6.226.634 10.86 10.86 0 0 0-4.837 4.076 11.297 11.297 0 0 0-1.822 6.148c0 .42.162.822.452 1.12.289.296.68.463 1.09.463h18.5c.409 0 .8-.167 1.09-.464.289-.297.451-.7.451-1.12"/>
</svg>
