<svg xmlns="http://www.w3.org/2000/svg" width="40" height="40" fill="none" viewBox="0 0 40 40">
  <path fill="#fff" d="M38.334 20.833 34.167 25l-5-3.333v-6.93c-2.54-.842-5.59-1.404-9.167-1.404-3.575 0-6.626.562-9.166 1.404v6.93l-5 3.333-4.167-4.167c1.108-1.661 4.132-4.428 9.167-6.096 2.54-.842 5.591-1.404 9.166-1.404 3.577 0 6.627.562 9.167 1.404 5.035 1.666 8.058 4.433 9.167 6.096Z"/>
  <path stroke="#fff" stroke-linecap="round" stroke-linejoin="round" stroke-width="2" d="M29.167 14.737c-2.54-.842-5.59-1.404-9.167-1.404-3.575 0-6.626.562-9.166 1.404m18.333 0c5.035 1.666 8.058 4.433 9.167 6.096L34.167 25l-5-3.333v-6.93Zm-18.333 0c-5.035 1.666-8.059 4.433-9.167 6.096L5.834 25l5-3.333v-6.93Z"/>
</svg>
