<svg xmlns="http://www.w3.org/2000/svg" width="43" height="43" fill="none" viewBox="0 0 43 43">
  <path fill="#000" d="M21.73 0C10.06 0 .596 9.463.596 21.135c0 11.671 9.463 21.134 21.134 21.134 11.672 0 21.135-9.463 21.135-21.134C42.865 9.463 33.402 0 21.73 0Zm0 38.684c-9.69 0-17.549-7.86-17.549-17.55 0-9.69 7.86-17.549 17.55-17.549 9.69 0 17.549 7.86 17.549 17.55 0 9.69-7.86 17.55-17.55 17.55Z"/>
  <path fill="#000" d="M27.03 11.358c-1.424-1.24-3.304-1.92-5.297-1.92-1.994 0-3.873.685-5.297 1.92-1.481 1.288-2.298 3.019-2.298 4.872v.358a.38.38 0 0 0 .38.378h2.278a.38.38 0 0 0 .38-.378v-.358c0-2.08 2.046-3.773 4.557-3.773 2.51 0 4.556 1.693 4.556 3.773 0 1.467-1.044 2.81-2.663 3.429a5.3 5.3 0 0 0-2.472 1.928 5.374 5.374 0 0 0-.945 3.061v1.014c0 .208.17.378.38.378h2.278a.38.38 0 0 0 .38-.378v-1.07c.002-.458.143-.905.405-1.281a2.29 2.29 0 0 1 1.061-.832c2.8-1.07 4.61-3.523 4.61-6.249.004-1.853-.812-3.584-2.293-4.872Zm-7.196 19.586c0 .5.2.98.556 1.334a1.905 1.905 0 0 0 2.685 0 1.88 1.88 0 0 0 0-2.668 1.905 1.905 0 0 0-2.685 0 1.88 1.88 0 0 0-.556 1.334Z"/>
</svg>
