<svg xmlns="http://www.w3.org/2000/svg" width="43" height="43" fill="none" viewBox="0 0 43 43">
  <path fill="#000" d="M25.602 0a1.51 1.51 0 0 1 1.437 1.048l1.662 5.16a16.42 16.42 0 0 1 2.002 1.156l5.305-1.141a1.511 1.511 0 0 1 1.625.724l4.186 7.244a1.509 1.509 0 0 1-.19 1.769l-3.64 4.015c.053.77.053 1.543 0 2.313l3.64 4.022a1.51 1.51 0 0 1 .19 1.769l-4.186 7.246a1.509 1.509 0 0 1-1.625.722l-5.305-1.141c-.634.428-1.305.815-2 1.156l-1.664 5.16a1.51 1.51 0 0 1-1.437 1.047h-8.374a1.511 1.511 0 0 1-1.437-1.047l-1.659-5.157a16.585 16.585 0 0 1-2.008-1.162l-5.302 1.144a1.51 1.51 0 0 1-1.625-.725L1.011 28.08a1.509 1.509 0 0 1 .19-1.77l3.64-4.02a16.838 16.838 0 0 1 0-2.308L1.2 15.96a1.51 1.51 0 0 1-.19-1.77l4.186-7.246a1.51 1.51 0 0 1 1.625-.721l5.301 1.144c.64-.432 1.312-.821 2.01-1.162l1.66-5.157A1.51 1.51 0 0 1 17.226 0h8.376Zm-1.106 3.02h-6.162l-1.716 5.334-1.157.565a13.97 13.97 0 0 0-1.643.948l-1.07.724-5.485-1.183-3.08 5.338 3.76 4.16-.09 1.28a13.823 13.823 0 0 0 0 1.897l.09 1.28-3.767 4.16 3.084 5.338 5.486-1.18 1.07.722c.524.353 1.074.67 1.642.948l1.157.564 1.719 5.335h6.168l1.722-5.338 1.154-.561a13.605 13.605 0 0 0 1.64-.948l1.066-.722 5.489 1.18 3.08-5.337-3.763-4.161.09-1.28a13.69 13.69 0 0 0 0-1.9l-.09-1.28 3.767-4.157-3.084-5.338-5.489 1.178-1.066-.72a13.575 13.575 0 0 0-1.64-.947l-1.154-.562-1.725-5.338h-.003Zm-3.081 9.057a9.064 9.064 0 0 1 9.062 9.058 9.056 9.056 0 0 1-9.062 9.057 9.064 9.064 0 0 1-9.062-9.057 9.064 9.064 0 0 1 9.062-9.058Zm0 3.02a6.042 6.042 0 0 0-6.041 6.038 6.037 6.037 0 0 0 6.041 6.038 6.043 6.043 0 0 0 6.041-6.038 6.037 6.037 0 0 0-6.041-6.039Z"/>
</svg>
