<svg xmlns="http://www.w3.org/2000/svg" width="34" height="34" fill="none" viewBox="0 0 34 34">
  <path fill="#fff" d="M14.167 22.667c.401 0 .738-.136 1.01-.408a1.37 1.37 0 0 0 .406-1.009v-2.833h2.834c.401 0 .738-.136 1.01-.408A1.37 1.37 0 0 0 19.833 17c0-.401-.135-.738-.406-1.01a1.375 1.375 0 0 0-1.01-.407h-2.834V12.75c0-.401-.135-.738-.406-1.01a1.375 1.375 0 0 0-1.01-.407 1.37 1.37 0 0 0-1.009.407 1.372 1.372 0 0 0-.408 1.01v2.833H9.917c-.402 0-.738.136-1.01.407A1.374 1.374 0 0 0 8.5 17c0 .401.136.738.407 1.009a1.37 1.37 0 0 0 1.01.408h2.833v2.833c0 .401.136.738.408 1.009.271.272.607.408 1.009.408Zm-8.5 5.666c-.78 0-1.446-.277-2-.831a2.73 2.73 0 0 1-.834-2.002v-17c0-.78.278-1.446.833-2a2.725 2.725 0 0 1 2-.833h17c.78 0 1.447.277 2.002.833.555.554.832 1.22.832 2v6.375l4.462-4.463c.213-.212.467-.265.763-.16.294.107.442.326.442.656v12.184c0 .33-.148.548-.442.654-.296.107-.55.054-.763-.159L25.5 19.125V25.5a2.73 2.73 0 0 1-.832 2.002 2.732 2.732 0 0 1-2.001.831h-17Zm0-2.833h17v-17h-17v17Zm0 0v-17 17Z"/>
</svg>
